<?xml version="1.0" encoding="utf-8"?>
<!-- Generator: Adobe Illustrator 27.1.1, SVG Export Plug-In . SVG Version: 6.00 Build 0)  -->
<svg version="1.1" id="Vrstva_1" xmlns="http://www.w3.org/2000/svg" xmlns:xlink="http://www.w3.org/1999/xlink" x="0px" y="0px"
	 viewBox="0 0 100 100" style="enable-background:new 0 0 100 100;" xml:space="preserve">
<style type="text/css">
	.st0{fill:#009FE3;}
</style>
<g>
	<path class="st0" d="M10.78,50c0-5.58,5.49-10.1,12.26-10.1s28.13,9.5,28.13,10.1c0,0.59-21.36,10.1-28.13,10.1
		S10.78,55.58,10.78,50z"/>
	<path class="st0" d="M40.35,10.85c3.24-4.54,10.34-5.02,15.85-1.08s17.36,24.09,17.01,24.57s-23.24-4.2-28.75-8.14
		S37.11,15.39,40.35,10.85z"/>
	<path class="st0" d="M40.35,89.15c3.24,4.54,10.34,5.02,15.85,1.08c5.51-3.94,17.36-24.09,17.01-24.57s-23.24,4.2-28.75,8.14
		S37.11,84.61,40.35,89.15z"/>
</g>
</svg>
