<?xml version="1.0" encoding="utf-8"?>
<!-- Generator: Adobe Illustrator 27.1.1, SVG Export Plug-In . SVG Version: 6.00 Build 0)  -->
<svg version="1.1" id="Vrstva_1" xmlns="http://www.w3.org/2000/svg" xmlns:xlink="http://www.w3.org/1999/xlink" x="0px" y="0px"
	 viewBox="0 0 100 100" style="enable-background:new 0 0 100 100;" xml:space="preserve">
<style type="text/css">
	.st0{fill:#009FE3;}
</style>
<g>
	<path class="st0" d="M89.22,50c0,5.58-5.49,10.1-12.26,10.1S48.83,50.59,48.83,50c0-0.59,21.36-10.1,28.13-10.1
		S89.22,44.42,89.22,50z"/>
	<path class="st0" d="M59.65,89.15c-3.24,4.54-10.34,5.02-15.85,1.08c-5.51-3.94-17.36-24.09-17.01-24.57s23.24,4.2,28.75,8.14
		S62.89,84.61,59.65,89.15z"/>
	<path class="st0" d="M59.65,10.85C56.41,6.32,49.31,5.83,43.8,9.77S26.45,33.85,26.79,34.34s23.24-4.2,28.75-8.14
		S62.89,15.39,59.65,10.85z"/>
</g>
</svg>
