<?xml version="1.0" encoding="utf-8"?>
<!-- Generator: Adobe Illustrator 27.5.0, SVG Export Plug-In . SVG Version: 6.00 Build 0)  -->
<svg version="1.1" id="Vrstva_1" xmlns="http://www.w3.org/2000/svg" xmlns:xlink="http://www.w3.org/1999/xlink" x="0px" y="0px"
	 viewBox="0 0 262.4 207.9" style="enable-background:new 0 0 262.4 207.9;" xml:space="preserve">
<style type="text/css">
	.st0{clip-path:url(#SVGID_00000026123859960884290230000018145124923363895223_);}
	.st1{fill:#1D1D1B;}
	.st2{fill:#FFFFFF;}
	.st3{fill:#009FE3;}
</style>
<g>
	<defs>
		<rect id="SVGID_1_" x="-12.7" y="-4.1" width="277.8" height="218.4"/>
	</defs>
	<clipPath id="SVGID_00000057110825558193392500000010583251818799646370_">
		<use xlink:href="#SVGID_1_"  style="overflow:visible;"/>
	</clipPath>
	<g style="clip-path:url(#SVGID_00000057110825558193392500000010583251818799646370_);">
		<path class="st1" d="M97.4,69.6c0-13.1,10.7-23.8,23.8-23.8h13.2c13.1,0,23.8,10.7,23.8,23.8v30.4c7.2-0.1,14.4-0.3,21.6-0.6V69.6
			c0-25-20.4-45.4-45.4-45.4h-13.2c-25,0-45.4,20.4-45.4,45.4v30.1c7.2,0.1,14.4,0.2,21.6,0.3L97.4,69.6L97.4,69.6z"/>
		<path class="st2" d="M87.8,118.2h-1.9c-7.6,0-13.7-6.1-13.7-13.7V92.8c0-7.6,6.1-13.7,13.7-13.7h1.9"/>
		<path class="st2" d="M168,118.2h1.9c7.6,0,13.7-6.1,13.7-13.7V92.8c0-7.6-6.1-13.7-13.7-13.7H168"/>
		<path class="st1" d="M127.8,151.2c-23.4,0-42.5-19-42.5-42.5V76.1c0-23.4,19-42.5,42.5-42.5s42.5,19,42.5,42.5v32.5
			C170.3,132.1,151.2,151.2,127.8,151.2 M127.8,36.3c-22,0-39.9,17.9-39.9,39.9v32.5c0,22,17.9,39.9,39.9,39.9s39.9-17.9,39.9-39.9
			V76.1C167.7,54.2,149.8,36.3,127.8,36.3"/>
		<path class="st2" d="M127.8,36.3c-22,0-39.9,17.9-39.9,39.9v32.5c0,22,17.9,39.9,39.9,39.9s39.9-17.9,39.9-39.9V76.1
			C167.7,54.2,149.8,36.3,127.8,36.3"/>
		<path class="st3" d="M184.2,94.6c-0.1-1-0.1-2-0.1-3c0,0-0.1,0-0.1,0c-6.9,0-6.9,8.6-13.9,8.6c-6.9,0-6.9-8.6-13.9-8.6
			c-6.9,0-6.9,8.6-13.9,8.6c-6.9,0-6.9-8.6-13.9-8.6c-6.9,0-6.9,8.6-13.9,8.6s-6.9-8.6-13.9-8.6c-6.9,0-6.9,8.6-13.9,8.6
			S80,91.6,73,91.6c-0.3,0-0.6,0-0.8,0.1c0.2,2.5,0.2,4.9,0.1,7.4c-0.2,3.3,0,6.6,1,9.7c0.8,2.6,1.9,4.4,3.6,5.9
			c1.1,1,2.4,2,3.7,2.6c0.5,0.3,1.2,0.5,1.7,0.7c-0.4-0.1,1.6,0,0.7,0.1c3.6-0.3,5.7,2.5,5.4,5.4c2.8,4.7,5.7,9.5,9.4,13.5
			c3.7,3.9,8.2,7.1,13.1,9.4c2.2,1,4.6,2,6.9,2.8c2.7,0.7,5.6,1.1,8.5,1.1c4.3-0.1,8.5-0.9,12.7-1.9c2.3-0.5,4.5-1.6,6.8-2.2
			c3.6-2.3,7-5.2,10.5-7.7c0.4-0.4,0.7-0.8,1.1-1.2c3.7-4.4,9.1-9,9.5-15.1c0.2-2.1,2-4,4.1-4.3c1.5-0.2,2.9-0.3,4.4-0.6
			c1.9-0.8,3.7-1.7,4.8-2.7c0.7-0.6,1.7-2.1,2.3-3.3c0.7-1.5,1.2-3.2,1.5-4.8C184.8,102.3,184.5,98.7,184.2,94.6"/>
		<path class="st1" d="M115.8,102.6c2.8,3.7,7.1,6.1,12.1,6.1c4.9,0,9.3-2.4,12.1-6.1c-3.4,1.8-7.6,2.8-12.1,2.8
			C123.4,105.4,119.2,104.4,115.8,102.6"/>
		<path class="st1" d="M143.2,93.5c2.4-0.3,4.6-1.8,5.8-4.1c1.2-2.3,1.2-4.9,0.2-7.1c0,2-0.6,4.2-1.7,6.3
			C146.4,90.7,144.9,92.4,143.2,93.5"/>
		<path class="st1" d="M111.9,93.5c-2.4-0.3-4.6-1.8-5.8-4.1c-1.2-2.3-1.2-4.9-0.2-7.1c0,2,0.6,4.2,1.7,6.3
			C108.7,90.7,110.2,92.4,111.9,93.5"/>
		<path class="st1" d="M98.8,114.7c7.4-2.2,19.3,3.2,26.4-5.4c0.5-0.6,1.1-1.2,1.6-1.6c-0.7-0.2-1.4-0.3-2.1-0.5
			C114.9,105.4,105.5,108.5,98.8,114.7"/>
		<path class="st1" d="M147.2,128.1c-5.2-5.7-18.2-7.2-19.8-18.3c-0.1-0.8-0.3-1.6-0.5-2.2c0.7,0.2,1.4,0.4,2,0.7
			C138.1,111.9,144.6,119.4,147.2,128.1"/>
		<path class="st1" d="M133.2,127.3c-1.2-4.2-4.2-7.7-8.4-9.2c-4.3-1.5-8.8-0.6-12.4,2c3.5-0.6,7.4-0.3,11.3,1.1
			C127.5,122.4,130.8,124.6,133.2,127.3"/>
		<path class="st1" d="M118.7,81.5c0,4.1-1.8,7.4-4,7.4c-2.2,0-4-3.3-4-7.4c0-4.1,1.8-7.4,4-7.4S118.7,77.4,118.7,81.5"/>
		<path class="st1" d="M144.9,81.5c0,4.1-1.8,7.4-4,7.4c-2.2,0-4-3.3-4-7.4c0-4.1,1.8-7.4,4-7.4C143.2,74.1,144.9,77.4,144.9,81.5"
			/>
		<path class="st1" d="M109.2,67.4c0,0,8.9,1.5,11.8-3.3c2.9-4.7-0.4-7.3-3.6-5.4C115.7,59.6,111.7,66.6,109.2,67.4"/>
		<path class="st1" d="M150.6,68c0,0-6.4,6.4-11.5,4.3c-5.1-2.1-4-6.1-0.3-6.5C140.9,65.5,148.2,68.9,150.6,68"/>
		<path class="st1" d="M127.8,151.2c-23.4,0-42.5-19-42.5-42.5V76.1c0-23.4,19-42.5,42.5-42.5s42.5,19,42.5,42.5v32.5
			C170.3,132.1,151.2,151.2,127.8,151.2 M127.8,36.3c-22,0-39.9,17.9-39.9,39.9v32.5c0,22,17.9,39.9,39.9,39.9s39.9-17.9,39.9-39.9
			V76.1C167.7,54.2,149.8,36.3,127.8,36.3"/>
		<path class="st1" d="M79.6,105.7c0-0.3-2-3.3-1.8-10.7c0.1-4.6,3.3-8.5,7.7-9.5l0.5,2.5C77.4,89.3,79.6,105.7,79.6,105.7"/>
		<path class="st1" d="M176.2,105.7c0-0.3,2-3.3,1.8-10.7c-0.2-4.6-3.3-8.5-7.7-9.5l-0.5,2.5C178.4,89.3,176.2,105.7,176.2,105.7"/>
		<path class="st1" d="M87.8,119.5h-1.9c-8.3,0-15-6.7-15-15V92.7c0-8.3,6.7-15,15-15h1.9v2.6h-1.9c-6.8,0-12.4,5.6-12.4,12.4v11.8
			c0,6.8,5.6,12.4,12.4,12.4h1.9V119.5L87.8,119.5z"/>
		<path class="st1" d="M169.9,119.5H168v-2.6h1.9c6.8,0,12.4-5.6,12.4-12.4V92.7c0-6.8-5.6-12.4-12.4-12.4H168v-2.6h1.9
			c8.3,0,15,6.7,15,15v11.8C184.9,112.8,178.2,119.5,169.9,119.5"/>
		<path class="st1" d="M169.1,93.4h2.9c1.6,0,2.8-1.3,2.8-2.8V70h-5.7V93.4z"/>
		<path class="st1" d="M86.7,93.4h-2.9c-1.6,0-2.8-1.3-2.8-2.8V70h5.7V93.4z"/>
		<path class="st1" d="M153.9,50.3c0,0-32.5,0.9-40.2-26.7l25.3-0.6C138.9,23,130.8,37.1,153.9,50.3"/>
		<path class="st1" d="M107.1,49.8c0,0,15.7,0.9,19.4-26.7l-12.2-0.6C114.4,22.4,118.3,36.5,107.1,49.8"/>
		<path class="st1" d="M105.4,58.5c0,0,12.8-9.1-1.8-33l-9.8,7.2C93.8,32.7,105.7,41.2,105.4,58.5"/>
		<path class="st1" d="M82,30.4c0,0-4.8,10.4,11,19.6l3.7-8.1C96.7,41.9,87.1,41.1,82,30.4"/>
		<path class="st1" d="M77.8,39c0,0,1.3,11.3,14.4,12l-1.1-8.8C91.1,42.2,85.1,46.1,77.8,39"/>
		<path class="st1" d="M154.7,26.4c0,6.4-10.9,11.6-24.4,11.6c-13.5,0-24.4-5.2-24.4-11.6s10.9-11.6,24.4-11.6
			C143.8,14.9,154.7,20.1,154.7,26.4"/>
		<path class="st1" d="M166.2,32.7c0,4-3.5,7.3-7.7,7.3s-7.7-3.3-7.7-7.3s3.5-7.3,7.7-7.3S166.2,28.7,166.2,32.7"/>
		<path class="st1" d="M110.1,32.7c0,4-3.5,7.3-7.7,7.3s-7.7-3.3-7.7-7.3s3.5-7.3,7.7-7.3S110.1,28.7,110.1,32.7"/>
		<path class="st1" d="M100.4,38.4c0,4-3.5,7.3-7.7,7.3s-7.7-3.3-7.7-7.3s3.5-7.3,7.7-7.3S100.4,34.4,100.4,38.4"/>
		<path class="st1" d="M175,41c0,4-3.5,7.3-7.7,7.3s-7.7-3.3-7.7-7.3s3.5-7.3,7.7-7.3S175,36.9,175,41"/>
		<path class="st1" d="M124.3,27.7c0,4.7-4.1,8.6-9.1,8.6s-9.1-3.8-9.1-8.6s4.1-8.6,9.1-8.6S124.3,23,124.3,27.7"/>
		<path class="st1" d="M139.3,25.9c0,4.7-4.1,8.6-9.1,8.6s-9.1-3.8-9.1-8.6s4.1-8.6,9.1-8.6C135.2,17.4,139.3,21.2,139.3,25.9"/>
		<path class="st1" d="M149.3,58.9c0,0,4-14.1-2-22.2l11.7,3.9C159,40.7,162.5,55.5,149.3,58.9"/>
		<path class="st1" d="M157.3,58.9c0,0,4-14.1-2-22.2l11.7,3.9C167,40.7,170.4,55.5,157.3,58.9"/>
		<path class="st1" d="M100.5,127.3c0,0.6-0.5,1.1-1.1,1.1c-0.6,0-1.1-0.5-1.1-1.1s0.5-1.1,1.1-1.1
			C99.9,126.2,100.5,126.7,100.5,127.3"/>
		<path class="st1" d="M104.7,135.9c0,0.6-0.5,1.1-1.1,1.1c-0.6,0-1.1-0.5-1.1-1.1c0-0.6,0.5-1.1,1.1-1.1
			C104.2,134.7,104.7,135.3,104.7,135.9"/>
		<path class="st1" d="M115.3,139c0,0.6-0.5,1.1-1.1,1.1c-0.6,0-1.1-0.5-1.1-1.1s0.5-1.1,1.1-1.1C114.8,137.9,115.3,138.4,115.3,139
			"/>
		<path class="st1" d="M123.6,133.2c0,0.6-0.5,1.1-1.1,1.1c-0.6,0-1.1-0.5-1.1-1.1c0-0.6,0.5-1.1,1.1-1.1
			C123.1,132.1,123.6,132.6,123.6,133.2"/>
		<path class="st1" d="M129.6,139.9c0,0.6-0.5,1.1-1.1,1.1c-0.6,0-1.1-0.5-1.1-1.1s0.5-1.1,1.1-1.1
			C129.1,138.8,129.6,139.3,129.6,139.9"/>
		<path class="st1" d="M135.9,132.7c0,0.6-0.5,1.1-1.1,1.1c-0.6,0-1.1-0.5-1.1-1.1c0-0.6,0.5-1.1,1.1-1.1
			C135.4,131.6,135.9,132.1,135.9,132.7"/>
		<path class="st1" d="M143.6,139c0,0.6-0.5,1.1-1.1,1.1c-0.6,0-1.1-0.5-1.1-1.1s0.5-1.1,1.1-1.1C143,137.9,143.6,138.4,143.6,139"
			/>
		<path class="st1" d="M150.7,131.6c0,0.6-0.5,1.1-1.1,1.1c-0.6,0-1.1-0.5-1.1-1.1s0.5-1.1,1.1-1.1
			C150.2,130.5,150.7,131,150.7,131.6"/>
		<path class="st1" d="M162,124.9c0,0.6-0.5,1.1-1.1,1.1c-0.6,0-1.1-0.5-1.1-1.1s0.5-1.1,1.1-1.1C161.5,123.8,162,124.3,162,124.9"
			/>
		<path class="st1" d="M94.2,119c0,0.6-0.5,1.1-1.1,1.1c-0.6,0-1.1-0.5-1.1-1.1c0-0.6,0.5-1.1,1.1-1.1
			C93.7,117.9,94.2,118.4,94.2,119"/>
		<path class="st1" d="M164.2,113.2c0,0.6-0.5,1.1-1.1,1.1c-0.6,0-1.1-0.5-1.1-1.1s0.5-1.1,1.1-1.1
			C163.7,112.1,164.2,112.6,164.2,113.2"/>
		<path class="st1" d="M153.4,118.1c0,0.6-0.5,1.1-1.1,1.1c-0.6,0-1.1-0.5-1.1-1.1s0.5-1.1,1.1-1.1
			C152.9,117,153.4,117.5,153.4,118.1"/>
		<path class="st1" d="M104.9,119.7c0,0.6-0.5,1.1-1.1,1.1c-0.6,0-1.1-0.5-1.1-1.1c0-0.6,0.5-1.1,1.1-1.1
			C104.4,118.6,104.9,119.1,104.9,119.7"/>
		<path class="st1" d="M93.5,109.2c0,0.6-0.5,1.1-1.1,1.1s-1.1-0.5-1.1-1.1c0-0.6,0.5-1.1,1.1-1.1S93.5,108.5,93.5,109.2"/>
		<path class="st1" d="M112.8,130.5c0,0.6-0.5,1.1-1.1,1.1c-0.6,0-1.1-0.5-1.1-1.1s0.5-1.1,1.1-1.1
			C112.3,129.4,112.8,129.9,112.8,130.5"/>
		<path class="st1" d="M14.3,95.9c1-0.4,5.4-2,5.8-0.3c0.2,0.8-0.7,2-1.1,2.6c-0.7,1.1-1.7,2-2.5,3c-3.3,3.6-7,6.9-9.9,10.9
			c-2.6,3.6-4.6,8.5-1.7,12.6c2.8,4,8,2.9,12,1.8c8.5-2.2,16.4-7.2,22.1-13.9c1.4-1.7,3.2-3.7,3.4-6c0.1-1.9-1-4.1-2.9-4.6
			c-2.2-0.6-4.8,0.8-6.6,1.8c-1.9,1.1-4.1,2.5-4.6,4.8c-1.1,5.7,8,6,11.5,6.3c6.1,0.6,12.2,0.4,18.3-0.4c1-0.1,1.9-0.8,1.9-1.9
			c0-0.9-0.9-2-1.9-1.9c-4.5,0.6-9.1,0.9-13.7,0.7c-2.3-0.1-4.6-0.3-6.8-0.6c-1.3-0.2-4.3-0.1-5.3-1.3c-0.8-1,2.7-2.7,3.5-3.1
			c0.4-0.2,2.4-1.3,2.8-0.9c0.5,0.4,0,1.4-0.2,1.8c-0.9,1.6-2.3,3.1-3.6,4.4c-1.3,1.4-2.7,2.6-4.1,3.8c-2.9,2.3-6.2,4.2-9.7,5.6
			c-1.7,0.7-3.5,1.3-5.3,1.7c-1.7,0.4-3.8,1.1-5.6,0.7c-1.7-0.3-2.6-1.9-2.7-3.5c-0.1-2,1.1-3.9,2.2-5.6c2.4-3.5,5.6-6.4,8.5-9.4
			c2.5-2.6,7-6.6,5.8-10.8c-1.4-4.8-8-3.2-11.2-1.7C10.2,93.6,12.1,96.9,14.3,95.9"/>
		<path class="st1" d="M177.3,158.2c5.6-1.2,10.6-4.6,13.8-9.3c2.9-4.1,5.1-10.5,2.2-15.2c-1.3-2.1-3.6-3.6-6.1-3.5
			c-2.3,0.1-4.2,1.7-4.6,4c-0.5,2.8,1.1,5.9,1.9,8.5c1,3.1,2.1,6.1,3.3,9.1c2.7,6.9,6.1,13.6,10.7,19.5c1.3,1.7,4.2-0.5,2.9-2.3
			c-2.4-3.3-4.9-6.7-5.9-10.7c-0.9-3.3-0.9-7.7,2.1-9.9c1-0.7,2.3-1.2,3.4-0.4c1.1,0.8,1.1,2.5,0.9,3.7c-0.5,3.4-2.9,6.5-5.5,8.5
			c0.9,0.7,1.8,1.4,2.8,2.1c0.4-2.5,2.5-4.3,4.9-4.9c2.9-0.7,5,1.4,7.8,1.6c3.2,0.2,5.8-2.1,6.8-5c1.1-3.1,0.5-6.7-0.3-9.7
			c-1.3-4.9-5.3-13.6-11.8-11.5c-2.7,0.9-4.3,3.5-3.3,6.3c1,2.7,4.1,4.8,6.9,5.2c3.4,0.4,5.4-2.3,6.4-5.2c1.3-3.8,1.7-8,2.5-11.9
			h-3.6c0.7,3.5,2.2,6.8,4.5,9.6c2.1,2.6,5.3,5.6,8.8,5.7c3.5,0.1,5.5-3.1,6.6-6c1.4-3.7,2-7.7,1.6-11.5c-0.3-3.7-1.4-7.2-2.9-10.6
			c-1.3-3.2-2.8-7-5.5-9.3c-2.2-1.9-5.7-2.6-7.6,0.1c-2,2.9-0.3,5.9,1.5,8.4c5.3,7.4,11.8,13.7,18.1,20.2c1.4,1.5,4.2-0.5,2.9-2.3
			c-1.7-2.5-2.8-5.3-3.8-8.2c-0.5-1.5-1-3.1-1.4-4.6c-0.3-1.1-1.3-3.1-0.6-4.3c0.6-1.1,2.1-0.8,3-0.1c0.9,0.7,1.4,1.8,1.5,3
			c0.2,2.1-1,4.6-3.1,5.4c0.7,0.9,1.4,1.8,2.1,2.8c0.8-1.5,3.1-1.2,4.5-1.1c2.2,0.3,4.5,0.6,6.6-0.4c4.1-1.9,3.9-7,2.1-10.4
			c-1.1-2.1-4.4-0.2-3.2,1.9c0.6,1.2,1.2,2.9,0.5,4.2c-0.8,1.7-3.3,1.3-4.8,1.1c-3.2-0.4-7-0.5-8.9,2.8c-0.7,1.3,0.5,3.4,2.1,2.8
			c3.6-1.4,6-4.9,5.8-8.8c-0.1-4-3.4-8.1-7.7-7.4c-2.1,0.3-3.9,1.9-4.3,4c-0.4,2.2,0.5,4.5,1.1,6.5c1.3,4.4,2.7,9,5.3,12.8
			c1-0.8,2-1.5,2.9-2.3c-4.3-4.5-8.7-8.9-12.8-13.6c-2.1-2.4-4.1-4.9-5.9-7.6c-0.6-0.9-1.3-3.6,0.7-2.7c2.3,1,3.5,4.4,4.5,6.5
			c1.2,2.7,2.3,5.4,3,8.3c0.6,2.8,0.8,5.8,0.3,8.7c-0.4,2.3-1,5.7-2.8,7.4c-2.3,2.1-6-2-7.3-3.6c-2-2.4-3.3-5.3-3.9-8.3
			c-0.3-1.8-3.3-1.8-3.6,0c-0.6,2.9-1.2,5.9-1.8,8.8c-0.3,1.6-0.6,4.2-2,5.3c-1.4,1-4.6-1-4.9-2.5c-0.4-2,2.7-1.3,3.5-0.7
			c1.9,1.5,3,4.1,3.8,6.3c0.9,2.4,1.5,5.1,1.4,7.7c-0.1,2-1.4,4.7-3.8,4.2c-2.2-0.5-4-1.8-6.4-1.7c-4.4,0.2-9.1,3.3-9.8,7.8
			c-0.2,1.4,1.3,3.2,2.8,2.1c3.9-2.8,7.1-7.2,7.4-12.1c0.3-4.4-3.1-8.6-7.8-7.2c-4.9,1.4-7,6.8-6.7,11.5c0.4,5.8,3.6,10.7,6.9,15.3
			c1-0.8,2-1.5,2.9-2.3c-6.4-8.3-10.2-18.3-13.4-28.1c-0.4-1.2-0.8-2.4-1.1-3.6c-0.2-0.7-0.6-1.7-0.2-2.4c0.7-1.1,2.4-0.3,3.1,0.4
			c3,2.9,0.7,8.5-1.1,11.4c-2.7,4.3-7.1,7.3-12.1,8.3C174,155.1,175,158.7,177.3,158.2"/>
		<path class="st1" d="M42.7,127c-2-3.9-6.8-4-10.5-2.7c-3.5,1.2-6.8,3.8-7.8,7.5c-1,3.5,0.1,7.5,3.3,9.5c3.1,2,7.9,2.2,11.4,1.2
			c3.6-1,6.4-3.7,6.8-7.4c0.4-3.4-2.1-8-6.2-6.9c-1.7,0.5-3.3,2-3.8,3.7c-0.6,2,0.4,3.7,2,4.9c1.7,1.3,3.2,2.7,5.3,3.4
			c2.6,1,5.5,1.3,8.2,1.8c1.5,0.3,3,0.5,4.6,0.7c1,0.1,2.1,0.4,3,0.3c2.4-0.2,2.4-4,0-3.7c-1.2,0.1-2.5-0.2-3.7-0.4
			c-1.8-0.3-3.6-0.6-5.3-0.9c-3-0.5-6.1-1.1-8.4-3c-0.5-0.5-1.1-0.8-1.6-1.3c-0.5-0.5-0.6-0.7-0.2-1.2c0.4-0.5,0.9-0.8,1.4-0.5
			c1.8,1.1,0.7,4.2-0.4,5.4c-1.9,1.9-4.9,2.1-7.4,1.9c-2.5-0.2-5-1-5.6-3.7c-0.6-2.7,1-5.2,3.3-6.6c2.2-1.3,6.7-3,8.2,0
			C40.6,131.1,43.8,129.2,42.7,127"/>
		<path class="st1" d="M66.6,152.5c2.4-2.2,2.6-5.9,0.9-8.6c-1.8-3-5.3-4.2-8.6-4.6c-7-0.7-15.2,3.4-15.6,11.2
			c-0.1,3.2,1.8,6.2,4.5,7.7c2.5,1.4,5.5,1.5,8.2,0.9c5.1-1,8.5-4.3,11.8-8.1c3.8-4.4,7.1-9.4,11.2-13.6c1.7-1.7-0.9-4.4-2.6-2.6
			c-2.7,2.7-5,5.9-7.4,8.9c-2.5,3.2-5,6.7-8.2,9.2c-2.7,2.2-7.3,3.7-10.7,2.2c-2.2-1-3.4-3.2-2.9-5.6c0.6-2.7,2.7-4.8,5.1-5.8
			c2.9-1.2,6.8-1.3,9.6,0c2.2,1,4.1,4,1.9,6C62.2,151.5,64.8,154.1,66.6,152.5"/>
		<path class="st1" d="M66,147.7c-2.2,2.1-3.6,5.1-4.6,8c-0.9,2.6-1.8,6.1,0.1,8.5c2.1,2.6,5.9,2.1,8.7,0.9c2.8-1.3,5.1-3.4,7.7-5
			c0.7-0.4,1.3-0.7,2.1-1c0.3-0.1,0.8-0.1,1-0.3l0.3-0.1c-0.5-0.9-0.7-1.1-0.8-0.6c-0.2,0.2-0.5,1.1-0.7,1.4c-0.4,0.5-0.9,1-1.4,1.6
			c-1.7,1.8-3.5,3.9-3,6.6c0.9,4.9,6.1,5.5,10.1,4.4c4.4-1.2,9.4-3.8,12.2-7.5c-1.1-0.5-2.3-1-3.4-1.4c-1.6,6-4.6,11.5-7.7,16.9
			c-1.6,2.7-3.2,5.3-4.8,7.9c-1.5,2.5-2.7,5.3-4.5,7.6c-1.2,1.6-3.8,4.1-6,2.9c-1.9-1,1.1-5,1.9-6c3-4.3,7.6-7.4,12.7-8.5
			c6-1.4,12.6,0.3,17.2,4.4c1.8,1.6,4.5-1,2.6-2.6c-5.1-4.5-12-6.6-18.8-5.7c-6.5,0.9-12.4,4.5-16.4,9.7c-1.8,2.3-4.2,5.7-3.6,8.8
			c0.6,3.2,4,4.4,6.9,3.9c3.2-0.6,5.6-3.2,7.3-5.8c2-3,3.6-6.3,5.5-9.3c4.4-7.3,9.1-14.7,11.3-23c0.6-2.2-2.2-3.1-3.4-1.4
			c0.2-0.3-0.3,0.4-0.4,0.4c-0.2,0.2-0.4,0.4-0.7,0.6c-0.6,0.5-1.4,1-2.1,1.5c-1.7,1.1-3.4,2-5.3,2.7c-1.8,0.6-7.3,2.2-7-1.4
			c0.1-0.8,0.7-1.5,1.2-2c0.8-0.9,1.7-1.8,2.5-2.8c1.3-1.8,2.6-5.2-0.1-6.5c-2.4-1.1-5.8,1-7.8,2.3c-2.2,1.5-4.3,3.3-6.8,4.3
			c-1,0.4-2.9,1-3.7,0c-0.7-0.9-0.1-2.8,0.2-3.8c0.8-2.7,2-5.7,4.1-7.7C70.4,148.6,67.7,146,66,147.7"/>
		<path class="st1" d="M120.5,165.5c-1.2,10.1-1.8,20.3-1.8,30.4c0,2.4,3.7,2.4,3.8,0c0-10.2,0.6-20.3,1.8-30.4
			C124.5,163.1,120.8,163.1,120.5,165.5"/>
		<path class="st1" d="M116.2,171.2c1.9-1.6,4.2-3,6.4-3.8c0.4-0.1,0.9-0.3,1.3-0.4c0.2-0.1,0.4-0.1,0.6-0.1c0.1,0,0.2,0,0.2,0
			c0.4-0.1-0.2,0,0.1,0c0.6-0.1,1.3-0.1,1.9-0.1c1.7,0,3.5,0.3,4.7,1.6c1.8,1.9,0.8,4.8-0.8,6.4c-1.8,1.8-5.4,3.6-7.9,2.2
			c-2.1-1.2-4,2-1.9,3.2c3.4,1.9,7.7,0.8,10.7-1.3c3.2-2.2,5.3-5.8,4.5-9.8c-1.3-5.8-8.1-6.8-13-5.7c-3.6,0.8-6.7,2.9-9.5,5.2
			c-0.8,0.6-0.7,2,0,2.6C114.3,171.9,115.4,171.8,116.2,171.2"/>
		<path class="st1" d="M142.7,164.4c-5.6,1.7-9,7.9-5.6,13.2c3.4,5.2,10.7,5.9,14.8,1.2c2.1-2.3,3-5.3,2.6-8.3
			c-0.4-3-1.1-6.4-4.2-7.7c-2.6-1-6.8-0.7-8.2,2c-1.4,2.5,0.1,5.8,2.6,6.9c3.5,1.6,7.7-0.1,10.8-1.7c3.1-1.6,5.9-4,8.1-6.7
			c0.6-0.8,0.8-1.9,0-2.6c-0.6-0.7-2-0.8-2.6,0c-2.6,3.3-6.1,6-10.2,7.4c-1.4,0.5-4.3,1.4-5.2-0.3c-0.9-1.6,1.6-1.7,2.6-1.5
			c2.1,0.3,2.2,2.6,2.6,4.3c0.4,1.9,0.1,3.8-1.1,5.4c-2.2,3-6.2,3.4-8.7,0.6c-2.9-3.1-0.9-7.3,2.8-8.3
			C146,167.3,145,163.7,142.7,164.4"/>
		<path class="st3" d="M184.8,10.7c-2.6,2.5-7,13.5-7,13.5s11.3-3.9,13.8-6.4c2.6-2.5,3.2-6.1,1.3-8.1C191,7.8,187.4,8.2,184.8,10.7
			"/>
		<path class="st3" d="M205.8,21.7c-3.5,1-12.6,8.6-12.6,8.6s11.8,1.8,15.2,0.9c3.4-1,5.6-3.9,4.9-6.5
			C212.6,22.1,209.3,20.8,205.8,21.7"/>
		<path class="st3" d="M204.7,42.9c-3.5-0.9-15.2,1-15.2,1s9.2,7.6,12.6,8.5c3.5,0.9,6.8-0.4,7.5-3.1
			C210.4,46.8,208.2,43.9,204.7,42.9"/>
	</g>
</g>
</svg>
