<?xml version="1.0" encoding="UTF-8"?><svg id="Vrstva_1" xmlns="http://www.w3.org/2000/svg" viewBox="0 0 262.36 269.85"><defs><style>.cls-1{fill:#fff;}.cls-2{fill:#1e1e1c;}.cls-3{fill:#189cd9;}</style></defs><path class="cls-2" d="m66.44,122.82c0-21.07,17.14-38.2,38.2-38.2h21.16c21.07,0,38.2,17.14,38.2,38.2v48.72c11.54-.22,23.09-.55,34.65-.99v-47.73c0-40.17-32.68-72.86-72.86-72.86h-21.16c-40.18,0-72.86,32.69-72.86,72.86v48.39c11.55.15,23.1.29,34.65.42v-48.81Z"/><path class="cls-1" d="m50.98,200.95h-3.06c-12.13,0-21.97-9.83-21.97-21.97v-18.93c0-12.13,9.83-21.97,21.97-21.97h3.06"/><path class="cls-1" d="m179.68,200.95h3.06c12.13,0,21.97-9.83,21.97-21.97v-18.93c0-12.13-9.83-21.97-21.97-21.97h-3.06"/><path class="cls-2" d="m115.22,253.84c-37.6,0-68.19-30.59-68.19-68.19v-52.25c0-37.6,30.59-68.19,68.19-68.19s68.19,30.59,68.19,68.19v52.25c0,37.6-30.59,68.19-68.19,68.19m0-184.47c-35.31,0-64.03,28.72-64.03,64.03v52.25c0,35.31,28.73,64.03,64.03,64.03s64.03-28.72,64.03-64.03v-52.25c0-35.31-28.72-64.03-64.03-64.03"/><path class="cls-1" d="m115.22,69.37c-35.31,0-64.03,28.72-64.03,64.03v52.25c0,35.31,28.73,64.03,64.03,64.03s64.03-28.72,64.03-64.03v-52.25c0-35.31-28.72-64.03-64.03-64.03"/><path class="cls-3" d="m205.73,163c-.1-1.64-.16-3.26-.13-4.86-.07,0-.14-.02-.21-.02-11.14,0-11.14,13.83-22.27,13.83s-11.14-13.83-22.28-13.83-11.14,13.83-22.27,13.83-11.14-13.83-22.28-13.83-11.14,13.83-22.27,13.83-11.14-13.83-22.27-13.83-11.14,13.83-22.27,13.83-11.13-13.83-22.27-13.83c-.48,0-.92.05-1.35.09.31,3.95.39,7.91.13,11.91-.34,5.23.06,10.52,1.6,15.57,1.26,4.13,2.98,7.09,5.78,9.53,1.78,1.56,3.88,3.14,6.01,4.19.83.41,1.86.83,2.77,1.07-.66-.17,2.52.06,1.06.19,5.82-.52,9.18,4.03,8.6,8.66,4.56,7.56,9.08,15.18,15.12,21.68,5.88,6.33,13.22,11.37,21.03,15.03,3.6,1.68,7.36,3.25,11.15,4.54,4.41,1.08,8.93,1.8,13.72,1.74,6.93-.09,13.7-1.49,20.43-3.02,3.69-.83,7.29-2.51,10.97-3.52,5.84-3.75,11.29-8.35,16.79-12.33.6-.65,1.21-1.3,1.78-1.98,5.9-7.09,14.54-14.48,15.32-24.2.27-3.37,3.23-6.48,6.58-6.9,2.33-.29,4.71-.55,7.05-.96,2.99-1.36,5.86-2.72,7.78-4.41,1.07-.94,2.72-3.32,3.64-5.31,1.14-2.45,1.91-5.08,2.35-7.74,1.1-6.59.62-12.38.21-18.96"/><path class="cls-2" d="m95.85,175.93c4.42,5.93,11.45,9.77,19.37,9.77s14.95-3.84,19.37-9.77c-5.51,2.82-12.18,4.48-19.37,4.48s-13.86-1.66-19.37-4.48"/><path class="cls-2" d="m139.96,161.27c3.85-.57,7.38-2.87,9.36-6.54,1.98-3.67,1.95-7.88.31-11.41-.07,3.26-.96,6.76-2.76,10.09-1.8,3.33-4.23,6.01-6.91,7.85"/><path class="cls-2" d="m89.57,161.27c-3.85-.57-7.38-2.87-9.36-6.54-1.98-3.67-1.95-7.88-.31-11.41.07,3.26.96,6.76,2.76,10.09,1.8,3.33,4.23,6.01,6.91,7.85"/><path class="cls-2" d="m68.55,195.23c11.84-3.51,31.01,5.07,42.4-8.74.86-1.04,1.71-1.88,2.54-2.56-1.1-.28-2.21-.53-3.35-.74-15.61-2.81-30.81,2.12-41.59,12.03"/><path class="cls-2" d="m146.33,216.88c-8.35-9.11-29.2-11.62-31.85-29.32-.2-1.33-.49-2.49-.86-3.5,1.09.33,2.17.69,3.25,1.09,14.83,5.63,25.32,17.68,29.46,31.72"/><path class="cls-2" d="m123.79,215.52c-1.9-6.79-6.72-12.44-13.55-14.83-6.83-2.39-14.12-.98-19.84,3.14,5.66-.94,11.94-.45,18.14,1.72,6.2,2.17,11.41,5.71,15.25,9.97"/><path class="cls-2" d="m100.57,142.06c0,6.57-2.87,11.9-6.41,11.9s-6.41-5.33-6.41-11.9,2.87-11.9,6.41-11.9,6.41,5.33,6.41,11.9"/><path class="cls-2" d="m142.68,142.06c0,6.57-2.87,11.9-6.41,11.9s-6.41-5.33-6.41-11.9,2.87-11.9,6.41-11.9,6.41,5.33,6.41,11.9"/><path class="cls-2" d="m85.31,119.28s14.29,2.33,18.96-5.25c4.67-7.59-.58-11.67-5.84-8.75-2.75,1.53-9.04,12.83-13.13,14"/><path class="cls-2" d="m151.86,120.26s-10.21,10.28-18.44,6.87c-8.23-3.4-6.37-9.79-.41-10.51,3.12-.38,14.85,5.09,18.85,3.64"/><path class="cls-2" d="m115.22,253.84c-37.6,0-68.19-30.59-68.19-68.19v-52.25c0-37.6,30.59-68.19,68.19-68.19s68.19,30.59,68.19,68.19v52.25c0,37.6-30.59,68.19-68.19,68.19m0-184.47c-35.31,0-64.03,28.72-64.03,64.03v52.25c0,35.31,28.73,64.03,64.03,64.03s64.03-28.72,64.03-64.03v-52.25c0-35.31-28.72-64.03-64.03-64.03"/><path class="cls-2" d="m37.76,180.84c-.04-.45-3.21-5.25-2.8-17.15.25-7.33,5.21-13.73,12.39-15.2l.83,4.07c-13.92,2.03-10.42,28.28-10.42,28.28"/><path class="cls-2" d="m192.9,180.84c.04-.45,3.21-5.25,2.8-17.15-.25-7.33-5.21-13.73-12.39-15.2l-.83,4.07c13.92,2.03,10.42,28.28,10.42,28.28"/><path class="cls-2" d="m50.98,203.03h-3.06c-13.26,0-24.05-10.79-24.05-24.04v-18.93c0-13.26,10.79-24.05,24.05-24.05h3.06v4.16h-3.06c-10.96,0-19.89,8.92-19.89,19.89v18.93c0,10.96,8.92,19.88,19.89,19.88h3.06v4.16Z"/><path class="cls-2" d="m182.74,203.03h-3.06v-4.16h3.06c10.96,0,19.88-8.92,19.88-19.88v-18.93c0-10.96-8.92-19.89-19.88-19.89h-3.06v-4.16h3.06c13.26,0,24.04,10.79,24.04,24.05v18.93c0,13.26-10.79,24.04-24.04,24.04"/><path class="cls-2" d="m181.5,161.05h4.62c2.5,0,4.54-2.03,4.54-4.54v-33.01h-9.16v37.54Z"/><path class="cls-2" d="m49.24,161.05h-4.62c-2.5,0-4.54-2.03-4.54-4.54v-33.01h9.16v37.54Z"/><path class="cls-2" d="m157.07,91.93s-52.22,1.48-64.59-42.88l40.54-.99s-13.06,22.67,24.05,43.87"/><path class="cls-2" d="m81.99,91.01s25.17,1.48,31.13-42.88l-19.54-.99s6.29,22.67-11.59,43.87"/><path class="cls-2" d="m79.12,105.08s20.49-14.7-2.81-52.92l-15.8,11.54s19.17,13.65,18.61,41.38"/><path class="cls-2" d="m41.7,59.97s-7.7,16.66,17.65,31.48l5.88-12.97s-15.48-1.26-23.53-18.5"/><path class="cls-2" d="m34.93,73.79s2.16,18.22,23.14,19.32l-1.75-14.13s-9.67,6.16-21.39-5.19"/><path class="cls-2" d="m158.43,53.62c0,10.27-17.55,18.59-39.21,18.59s-39.2-8.32-39.2-18.59,17.55-18.59,39.2-18.59,39.21,8.32,39.21,18.59"/><path class="cls-2" d="m176.89,63.74c0,6.46-5.57,11.69-12.44,11.69s-12.44-5.23-12.44-11.69,5.57-11.69,12.44-11.69,12.44,5.23,12.44,11.69"/><path class="cls-2" d="m86.71,63.74c0,6.46-5.57,11.69-12.44,11.69s-12.44-5.23-12.44-11.69,5.57-11.69,12.44-11.69,12.44,5.23,12.44,11.69"/><path class="cls-2" d="m71.16,72.78c0,6.46-5.57,11.69-12.44,11.69s-12.44-5.23-12.44-11.69,5.57-11.69,12.44-11.69,12.44,5.23,12.44,11.69"/><path class="cls-2" d="m190.94,76.91c0,6.46-5.57,11.69-12.44,11.69s-12.44-5.23-12.44-11.69,5.57-11.69,12.44-11.69,12.44,5.23,12.44,11.69"/><path class="cls-2" d="m109.54,55.7c0,7.6-6.55,13.76-14.64,13.76s-14.64-6.16-14.64-13.76,6.55-13.76,14.64-13.76,14.64,6.16,14.64,13.76"/><path class="cls-2" d="m133.54,52.77c0,7.6-6.55,13.76-14.64,13.76s-14.64-6.16-14.64-13.76,6.55-13.76,14.64-13.76,14.64,6.16,14.64,13.76"/><path class="cls-2" d="m149.75,105.75s6.35-22.67-3.24-35.6l18.8,6.3s5.49,23.81-15.57,29.3"/><path class="cls-2" d="m162.57,105.75s6.35-22.67-3.24-35.6l18.8,6.3s5.49,23.81-15.57,29.3"/><path class="cls-2" d="m71.27,215.59c0,1-.81,1.8-1.8,1.8s-1.8-.81-1.8-1.8.81-1.8,1.8-1.8,1.8.81,1.8,1.8"/><path class="cls-2" d="m78.12,229.29c0,1-.81,1.8-1.8,1.8s-1.8-.81-1.8-1.8.81-1.8,1.8-1.8,1.8.81,1.8,1.8"/><path class="cls-2" d="m95.06,234.34c0,1-.81,1.8-1.8,1.8s-1.8-.81-1.8-1.8.81-1.8,1.8-1.8,1.8.81,1.8,1.8"/><path class="cls-2" d="m108.39,224.96c0,1-.81,1.8-1.8,1.8s-1.8-.81-1.8-1.8.81-1.8,1.8-1.8,1.8.81,1.8,1.8"/><path class="cls-2" d="m118.13,235.78c0,1-.81,1.8-1.8,1.8s-1.8-.81-1.8-1.8.81-1.8,1.8-1.8,1.8.81,1.8,1.8"/><path class="cls-2" d="m128.22,224.24c0,1-.81,1.8-1.8,1.8s-1.8-.81-1.8-1.8.81-1.8,1.8-1.8,1.8.81,1.8,1.8"/><path class="cls-2" d="m140.47,234.34c0,1-.81,1.8-1.8,1.8s-1.8-.81-1.8-1.8.81-1.8,1.8-1.8,1.8.81,1.8,1.8"/><path class="cls-2" d="m152.01,222.44c0,1-.81,1.8-1.8,1.8s-1.8-.81-1.8-1.8.81-1.8,1.8-1.8,1.8.81,1.8,1.8"/><path class="cls-2" d="m170.03,211.63c0,1-.81,1.8-1.8,1.8s-1.8-.81-1.8-1.8.81-1.8,1.8-1.8,1.8.81,1.8,1.8"/><path class="cls-2" d="m61.17,202.26c0,1-.81,1.8-1.8,1.8s-1.8-.81-1.8-1.8.81-1.8,1.8-1.8,1.8.81,1.8,1.8"/><path class="cls-2" d="m173.63,192.88c0,1-.81,1.8-1.8,1.8s-1.8-.81-1.8-1.8.81-1.8,1.8-1.8,1.8.81,1.8,1.8"/><path class="cls-2" d="m156.33,200.81c0,1-.81,1.8-1.8,1.8s-1.8-.81-1.8-1.8.81-1.8,1.8-1.8,1.8.81,1.8,1.8"/><path class="cls-2" d="m78.48,203.34c0,1-.81,1.8-1.8,1.8s-1.8-.81-1.8-1.8.81-1.8,1.8-1.8,1.8.81,1.8,1.8"/><path class="cls-2" d="m60.09,186.4c0,1-.81,1.8-1.8,1.8s-1.8-.81-1.8-1.8.81-1.8,1.8-1.8,1.8.81,1.8,1.8"/><path class="cls-2" d="m91.09,220.64c0,1-.81,1.8-1.8,1.8s-1.8-.81-1.8-1.8.81-1.8,1.8-1.8,1.8.81,1.8,1.8"/><path class="cls-3" d="m206.68,28.31c-4.15,3.96-11.27,21.73-11.27,21.73,0,0,18.08-6.28,22.23-10.25,4.15-3.96,5.07-9.75,2.04-12.92-3.03-3.17-8.85-2.53-13,1.44"/><path class="cls-3" d="m240.42,46.06c-5.53,1.54-20.18,13.87-20.18,13.87,0,0,18.91,2.97,24.44,1.43,5.53-1.54,9.06-6.22,7.88-10.44-1.18-4.22-6.61-6.4-12.15-4.85"/><path class="cls-3" d="m238.69,80.09c-5.54-1.5-24.43,1.6-24.43,1.6,0,0,14.73,12.22,20.27,13.72,5.54,1.51,10.96-.7,12.11-4.94,1.15-4.23-2.41-8.88-7.95-10.38"/></svg>