<?xml version="1.0" encoding="UTF-8"?><svg id="Vrstva_1" xmlns="http://www.w3.org/2000/svg" viewBox="0 0 717.75 269.85"><defs><style>.cls-1{fill:#010101;}.cls-2{fill:#189cd9;}</style></defs><path class="cls-1" d="m84.62,175.51c-.24,0-.47,0-.71-.02-4.29-.27-7.68-1.95-10.09-4.98-4.45-5.62-5.22-15.87-2.42-32.26,1.67-9.77,3.74-21.91,2.58-23.96-.09-.04-.35-.14-.9-.22-2.09-.32-5.22,2.7-7.78,7.53-1.02,1.92-3.4,2.65-5.32,1.63-1.92-1.02-2.65-3.4-1.63-5.32,4.45-8.39,10.1-12.51,15.93-11.62,1.01.16,4.1.63,6.06,3.35,3.03,4.2,2.06,10.97-1.18,29.93-2.9,16.99-1.15,23.54.83,26.05.67.85,1.78,1.85,4.41,2.01,5.47.36,14.77-11.76,19.62-22.84,2.05-4.69,3.89-10.33,5.25-15.64-3.1.36-5.59-.1-7.53-1.36-1.78-1.16-3.89-3.52-3.77-8.14.14-5.76,3.33-11.66,7.76-14.33,2.96-1.78,6.18-1.98,9.08-.55,3.77,1.87,4.85,6.77,4.54,12.63,10.87-5.71,25.86-19.06,26.02-19.21,1.62-1.45,4.11-1.31,5.55.31,1.45,1.62,1.31,4.11-.31,5.55-.71.63-17.48,15.58-29.44,21.22-1.1.52-2.15.98-3.17,1.4-2.31,10.65-6.68,21.07-6.77,21.26-.12.28-12.23,27.56-26.61,27.56Zm26.21-63.81c-.24,0-.57.08-1.03.36-1.84,1.11-3.88,4.41-3.97,7.79-.03,1.03.19,1.35.2,1.35.26.22,1.73.51,5.01-.4.71-4.4.82-7.81.08-9.05-.08-.03-.18-.05-.3-.05Z"/><path class="cls-1" d="m128.93,178.2c-1.84,0-3.72-.29-5.63-.92-5.32-1.74-8.84-6.27-9.67-12.42-1.24-9.15,3.53-19.27,11.59-24.6,5.26-3.48,11.3-2.06,15.1-.16,1.09-.32,2.24-.5,3.39-.5,3.38,0,6.22,1.43,7.99,4.04,1.22,1.79,2.28,4.64,1.75,8.95,2.56-.6,5.1-1.7,7.09-3.5,2.88-2.6,5.82-5.11,8.81-7.24.1-.08.2-.15.3-.21,5.6-3.94,11.33-6.48,16.99-5.68,11.77,1.69,13.04,10.36,12.82,17.72-.3,10.28-7.5,20.58-16.04,22.96-9.91,2.76-18.19-.87-21.09-9.26-1.11-3.19-1.15-6.48-.62-9.58-3.15,1.71-6.85,2.79-10.74,3.12-4.24,9.43-12.5,17.24-22.02,17.24Zm3.51-32.19c-.98,0-1.98.22-2.88.82-6.22,4.12-8.83,11.83-8.13,16.99.29,2.18,1.28,5,4.32,5.99,7.08,2.32,13.16-3.43,16.64-9.39-3.41-.78-6.2-2.25-7.94-4.23-2.55-2.9-3.14-6.48-1.63-9.82.05-.11.1-.22.16-.33-.18-.01-.36-.02-.54-.02Zm42.08,1.84c-2.84,3.94-6.69,11.44-4.77,16.99,2.05,5.93,8.12,5.21,11.54,4.25,4.68-1.3,10.08-8.26,10.29-15.62.24-8.21-2.13-9.14-6.07-9.71-3.17-.46-7.07,1.38-10.99,4.08Zm-30.82-.37c-1.62,0-3.26,1.12-3.71,2.13-.12.27-.29.63.37,1.39.68.77,2.44,1.61,5.04,1.99.55-2.52.3-4.16-.2-4.9-.12-.18-.41-.61-1.5-.61Z"/><path class="cls-1" d="m363.8,176.34c-1.84,0-3.72-.29-5.63-.92-5.32-1.74-8.84-6.27-9.67-12.42-1.24-9.15,3.53-19.27,11.59-24.6,5.26-3.48,11.3-2.06,15.1-.16,1.09-.32,2.24-.5,3.39-.5,3.38,0,6.21,1.43,7.99,4.04.85,1.24,1.62,3,1.83,5.41,2.87-1.79,6.27-4.51,10.16-8.65,1.49-1.58,3.98-1.66,5.56-.17,1.58,1.49,1.66,3.98.17,5.56-6.84,7.28-12.75,11.06-17.54,12.89-.07.2-.15.39-.23.59-3.98,10.16-12.64,18.91-22.73,18.92Zm3.51-32.19c-.98,0-1.98.22-2.88.82-6.22,4.12-8.83,11.82-8.13,16.99.29,2.18,1.29,5,4.32,5.99,7.18,2.35,13.34-3.6,16.79-9.66-3.29-.34-6.12-1.73-8.09-3.97-2.55-2.9-3.14-6.48-1.63-9.82.05-.11.1-.22.16-.33-.18-.01-.36-.02-.54-.02Zm11.26,1.47c-1.62,0-3.26,1.12-3.71,2.13-.12.27-.29.63.37,1.39.75.86,2.06,1.35,3.67,1.37.4,0,.89-.01,1.5-.1.36-2.12.12-3.52-.34-4.18-.12-.18-.41-.61-1.49-.61Z"/><path class="cls-1" d="m237.96,231c-2.49,0-5.6-.91-8.97-4.01-2.34-2.15-3.54-5.32-3.56-9.44-.05-10.72,8.24-26.84,15.41-33.56,2.69-2.52,6.58-5.85,10.96-9.37.63-3.59,1.26-7.21,1.87-10.77-2.07,2.63-4.23,4.95-6.35,6.75-2.79,2.36-11.26,9.55-19.31,1.49-4.95-4.96-1.95-13.31.69-20.68,1.03-2.88,2.2-6.13,2.29-7.83-.63.45-1.45,1.2-2.38,2.38-1.06,1.35-2.86,4.67-4.77,8.19-3.35,6.16-7.51,13.83-11.66,18.45-4.24,4.72-9.09,6.55-13.32,5.02-2.49-.9-6.72-3.75-7.06-12.76-.35-9.41,8.88-53.04,9.94-57.98.45-2.12,2.54-3.48,4.67-3.03,2.12.45,3.48,2.54,3.03,4.67-2.81,13.17-10.04,48.91-9.77,56.04.14,3.7,1.2,5.41,1.87,5.66.67.24,2.5-.32,4.79-2.87,3.53-3.93,7.45-11.15,10.6-16.95,2.25-4.15,4.03-7.42,5.49-9.29,3.8-4.84,8.25-6.95,11.9-5.64,1.41.5,4.67,2.31,4.54,8.16-.07,2.94-1.37,6.58-2.76,10.44-1.18,3.3-3.96,11.04-2.53,12.47,1.37,1.37,2.92,2.93,8.65-1.93,6.2-5.25,13.33-16.76,15.58-25.12.54-2.03,2.59-3.27,4.63-2.82,2.05.44,3.39,2.42,3.05,4.49-.18,1.11-2.08,12.57-4.46,26.34,6.26-4.65,12.52-8.89,17.04-11.22,1.93-.99,4.3-.24,5.3,1.7,1,1.93.24,4.3-1.7,5.3-5.65,2.91-14.67,9.38-22.64,15.66-2.93,16.58-6.05,33.36-7.49,38.17-2.23,7.42-6.08,12.23-10.86,13.54-.78.22-1.69.37-2.71.37Zm11.69-44.35c-1.29,1.12-2.45,2.16-3.44,3.09-5.73,5.37-12.96,19.52-12.92,27.78,0,1.78.37,3.09,1.01,3.68,1.16,1.06,2.85,2.25,4.28,1.85,1.55-.43,3.79-2.81,5.41-8.21,1.06-3.53,3.24-14.82,5.66-28.19Z"/><path class="cls-1" d="m328.28,171.33c-6.65,0-10.13-2.66-10.51-2.97l4.95-6.11-.09-.07c.08.06,1.95,1.34,5.91,1.29,5.5-.08,9.55-2.48,12.04-7.12,1.29-2.41,1.29-5.17-.02-7.59-1.47-2.72-4.32-4.45-7.83-4.74-16.08-1.37-25.99,8.57-26.09,8.67-1.52,1.55-4.01,1.58-5.56.06-1.55-1.52-1.58-4.01-.06-5.56.51-.52,12.63-12.7,32.39-11.01,6.19.53,11.32,3.75,14.08,8.84,2.55,4.72,2.57,10.35.04,15.06-3.89,7.24-10.41,11.13-18.85,11.26-.12,0-.25,0-.37,0Z"/><path class="cls-1" d="m314.95,203.64c-.15,0-.29,0-.44-.02-2.16-.24-3.71-2.19-3.47-4.34.25-2.27,6.26-55.77,11.97-69.5.83-2.01,3.13-2.96,5.14-2.12,2,.83,2.95,3.14,2.12,5.14-4.23,10.16-9.32,48.49-11.42,67.34-.22,2.01-1.93,3.5-3.9,3.5Z"/><path class="cls-1" d="m419.92,179.89c-.2,0-.4-.02-.6-.05-2.15-.33-3.62-2.34-3.29-4.49.03-.18,2.78-17.97,6.66-33.54.11-.44,11.4-44.17,26.12-41.69,4.11.69,7.11,2.88,8.45,6.17,1.79,4.4.36,10.29-3.92,16.15-5.46,7.47-17.13,11.48-20.48,12.5-.92,2.82-1.78,5.76-2.53,8.77-3.79,15.22-6.49,32.66-6.52,32.84-.3,1.94-1.97,3.34-3.88,3.34Zm27.58-72.01c-2.15.25-6.73,7.17-10.99,17.26,3.89-1.76,8.23-4.29,10.46-7.34,2.87-3.92,3.57-7.12,2.99-8.54-.28-.69-1.11-1.15-2.46-1.38Z"/><path class="cls-1" d="m458.77,176.64c-.09,0-.18,0-.28,0-3.42-.08-6.39-1.62-8.37-4.33-1.23-1.68-2.2-3.46-3.15-5.19-1.5-2.74-2.66-4.76-4.13-5.93-10.19,4.78-20.44,2.23-20.99,2.09-1.39-.36-2.47-1.45-2.83-2.84-.35-1.39.08-2.86,1.13-3.84.42-.39.86-.75,1.32-1.09-1.1-1.08-1.51-2.75-.91-4.27,6.08-15.33,15.96-22.14,27.83-19.18l.13.03c2.62.65,7,3.34,8.34,8.12.93,3.31.65,8.65-5.93,15.26-.46.46-.92.89-1.38,1.3,1.83,2.03,3.14,4.43,4.31,6.57.86,1.57,1.67,3.06,2.6,4.32.54.74,1.22,1.08,2.2,1.1,2.11.08,5.59-1.53,8.53-5.19,1.87-2.32,3.44-6.43,4.58-10.74-3.84-.55-7.19-2.7-9.36-6.14-2.56-4.06-2.79-9.02-.56-12.36,2.47-3.71,7.16-5.98,11.43-5.53,3.47.37,6.2,2.43,7.48,5.65.7,1.77.93,4.43.78,7.52,4.79-3.12,10.06-7.92,13.24-11.29,1.31-1.39,3.44-1.64,5.03-.58,1.6,1.06,2.2,3.11,1.43,4.86-3.13,7.15-7.45,20.59-5.7,26.2.77,2.48,2.07,3.19,2.98,3.52,2.85,1.01,7.58-.24,12.06-3.2,1.81-1.2,4.25-.7,5.45,1.11,1.2,1.81.7,4.25-1.11,5.45-6.67,4.4-13.78,5.92-19.04,4.05-2.65-.94-6.17-3.2-7.85-8.58-1.46-4.67-.54-11.22.99-17.17-2.83,2.1-5.89,4.04-8.86,5.27-1.48,6.68-3.99,13.36-6.84,16.9-4.05,5.03-9.6,8.12-14.56,8.12Zm-15.55-37.37c-8.28,0-12.66,8.5-14.64,13.19,4.59-1.06,9.68-.91,13.75,0,1.04-.71,2.07-1.55,3.05-2.53,2.98-3,4.42-5.75,3.93-7.56-.42-1.57-2.2-2.51-2.66-2.63l-.15-.04c-1.16-.29-2.25-.42-3.29-.42Zm28.98-2.65c-1.2,0-2.89.75-3.79,2.09-.37.56-.35,2.19.67,3.8.61.97,1.91,2.43,4.27,2.6.5-3.6.58-6.58.12-7.74-.17-.42-.38-.66-.99-.73-.09,0-.18-.01-.27-.01Z"/><path class="cls-1" d="m512.77,179.89c-.2,0-.4-.02-.6-.05-2.15-.33-3.62-2.34-3.29-4.49.03-.18,2.78-17.97,6.66-33.54.03-.13,1.07-4.15,2.91-9.65.07-.51.24-1,.49-1.44,4.43-12.91,12.8-32.28,22.72-30.6,4.11.69,7.11,2.88,8.45,6.17,1.79,4.4.36,10.29-3.92,16.15-4.99,6.82-16.18,11.58-20.74,13.31-.82,2.57-1.59,5.24-2.27,7.97-3.79,15.22-6.49,32.66-6.52,32.84-.3,1.94-1.97,3.34-3.88,3.34Zm27.58-72.01c-2.17.26-6.84,7.34-11.14,17.62,4.12-2.06,8.48-4.78,10.62-7.7,2.87-3.92,3.57-7.12,2.99-8.54-.28-.69-1.11-1.15-2.46-1.38Z"/><path class="cls-1" d="m551.62,176.64c-.09,0-.18,0-.28,0-3.42-.08-6.39-1.62-8.37-4.33-1.23-1.68-2.2-3.46-3.14-5.18-1.5-2.75-2.66-4.76-4.13-5.93-10.19,4.78-20.44,2.23-20.99,2.09-1.39-.36-2.47-1.45-2.83-2.84-.35-1.39.08-2.86,1.13-3.84.42-.39.86-.75,1.32-1.09-1.1-1.08-1.51-2.75-.91-4.27,6.08-15.33,15.97-22.14,27.83-19.18l.13.03c2.62.65,7,3.34,8.34,8.12.93,3.31.65,8.65-5.93,15.26-.46.46-.92.89-1.38,1.3,1.83,2.03,3.14,4.44,4.31,6.57.86,1.57,1.67,3.06,2.6,4.32.54.74,1.22,1.08,2.2,1.1,2.14.08,5.59-1.53,8.53-5.19,1.36-1.69,3.84-1.96,5.53-.6,1.69,1.36,1.96,3.84.6,5.53-4.05,5.03-9.6,8.12-14.56,8.12Zm-15.5-37.36c-5.92,0-10.84,4.42-14.67,13.18,4.59-1.05,9.67-.9,13.74,0,1.04-.71,2.07-1.55,3.05-2.53,2.98-3,4.42-5.75,3.93-7.56-.42-1.57-2.2-2.51-2.66-2.63l-.15-.04c-1.11-.28-2.19-.41-3.23-.41Z"/><path class="cls-2" d="m574.93,61c-4.7,4.49-12.76,24.6-12.76,24.6,0,0,20.46-7.11,25.17-11.6,4.7-4.49,5.74-11.04,2.31-14.63-3.43-3.59-10.01-2.86-14.72,1.63"/><path class="cls-2" d="m613.13,81.09c-6.26,1.75-22.84,15.7-22.84,15.7,0,0,21.41,3.36,27.67,1.61,6.26-1.74,10.26-7.04,8.93-11.82-1.33-4.78-7.49-7.24-13.75-5.49"/><path class="cls-2" d="m611.17,119.62c-6.27-1.7-27.65,1.81-27.65,1.81,0,0,16.67,13.83,22.95,15.54,6.27,1.7,12.41-.8,13.71-5.59,1.3-4.79-2.73-10.05-9-11.76"/></svg>