<?xml version="1.0" encoding="UTF-8"?><svg id="Vrstva_1" xmlns="http://www.w3.org/2000/svg" xmlns:xlink="http://www.w3.org/1999/xlink" viewBox="0 0 262.36 269.85"><defs><style>.cls-1{fill:none;}.cls-2{clip-path:url(#clippath);}.cls-3{fill:#009fe3;}.cls-4{fill:#fff;}.cls-5{fill:#1d1d1b;}</style><clipPath id="clippath"><rect class="cls-1" x="22.34" y="56.45" width="207.67" height="163.28"/></clipPath></defs><g class="cls-2"><path class="cls-5" d="m104.7,111.53c0-9.81,7.98-17.79,17.79-17.79h9.85c9.81,0,17.79,7.98,17.79,17.79v22.69c5.37-.1,10.75-.25,16.14-.46v-22.23c0-18.71-15.22-33.93-33.92-33.93h-9.85c-18.71,0-33.92,15.22-33.92,33.93v22.53c5.38.07,10.76.13,16.14.2v-22.73Z"/><path class="cls-4" d="m97.5,147.91h-1.43c-5.65,0-10.23-4.58-10.23-10.23v-8.81c0-5.65,4.58-10.23,10.23-10.23h1.43"/><path class="cls-4" d="m157.43,147.91h1.43c5.65,0,10.23-4.58,10.23-10.23v-8.81c0-5.65-4.58-10.23-10.23-10.23h-1.43"/><path class="cls-5" d="m127.41,172.53c-17.51,0-31.75-14.24-31.75-31.75v-24.33c0-17.51,14.24-31.75,31.75-31.75s31.75,14.24,31.75,31.75v24.33c0,17.51-14.24,31.75-31.75,31.75m0-85.89c-16.44,0-29.82,13.37-29.82,29.81v24.33c0,16.44,13.38,29.81,29.82,29.81s29.81-13.37,29.81-29.81v-24.33c0-16.44-13.37-29.81-29.81-29.81"/><path class="cls-4" d="m127.41,86.64c-16.44,0-29.82,13.37-29.82,29.81v24.33c0,16.44,13.38,29.81,29.82,29.81s29.81-13.37,29.81-29.81v-24.33c0-16.44-13.37-29.81-29.81-29.81"/><path class="cls-3" d="m169.56,130.23c-.05-.76-.07-1.52-.06-2.26-.03,0-.06,0-.1,0-5.18,0-5.18,6.44-10.37,6.44s-5.19-6.44-10.37-6.44-5.18,6.44-10.37,6.44-5.19-6.44-10.37-6.44-5.18,6.44-10.37,6.44-5.19-6.44-10.37-6.44-5.18,6.44-10.37,6.44-5.18-6.44-10.37-6.44c-.22,0-.43.02-.63.04.14,1.84.18,3.68.06,5.54-.16,2.44.03,4.9.75,7.25.59,1.92,1.39,3.3,2.69,4.44.83.73,1.81,1.46,2.8,1.95.39.19.87.39,1.29.5-.31-.08,1.17.03.49.09,2.71-.24,4.27,1.88,4.01,4.03,2.12,3.52,4.23,7.07,7.04,10.1,2.74,2.95,6.15,5.29,9.79,7,1.68.78,3.43,1.51,5.19,2.12,2.05.51,4.16.84,6.39.81,3.23-.04,6.38-.69,9.51-1.4,1.72-.39,3.39-1.17,5.11-1.64,2.72-1.75,5.26-3.89,7.82-5.74.28-.3.56-.6.83-.92,2.75-3.3,6.77-6.74,7.13-11.27.12-1.57,1.51-3.02,3.06-3.21,1.09-.13,2.19-.25,3.28-.45,1.39-.63,2.73-1.27,3.62-2.05.5-.44,1.27-1.55,1.69-2.47.53-1.14.89-2.36,1.1-3.6.51-3.07.29-5.76.1-8.83"/><path class="cls-5" d="m118.4,136.25c2.06,2.76,5.33,4.55,9.02,4.55s6.96-1.79,9.02-4.55c-2.57,1.32-5.67,2.09-9.02,2.09s-6.45-.77-9.02-2.09"/><path class="cls-5" d="m138.93,129.43c1.79-.26,3.44-1.34,4.36-3.04.92-1.71.91-3.67.14-5.31-.03,1.52-.45,3.15-1.28,4.7-.84,1.55-1.97,2.8-3.22,3.66"/><path class="cls-5" d="m115.47,129.43c-1.79-.26-3.44-1.34-4.36-3.04-.92-1.71-.91-3.67-.14-5.31.03,1.52.45,3.15,1.28,4.7.84,1.55,1.97,2.8,3.22,3.66"/><path class="cls-5" d="m105.69,145.24c5.51-1.63,14.44,2.36,19.74-4.07.4-.48.79-.88,1.18-1.19-.51-.13-1.03-.25-1.56-.34-7.27-1.31-14.35.99-19.37,5.6"/><path class="cls-5" d="m141.9,155.32c-3.89-4.24-13.6-5.41-14.83-13.65-.09-.62-.23-1.16-.4-1.63.51.15,1.01.32,1.51.51,6.91,2.62,11.79,8.23,13.72,14.77"/><path class="cls-5" d="m131.41,154.69c-.88-3.16-3.13-5.79-6.31-6.9-3.18-1.11-6.57-.46-9.24,1.46,2.64-.44,5.56-.21,8.45.8,2.89,1.01,5.32,2.66,7.1,4.64"/><path class="cls-5" d="m120.59,120.48c0,3.06-1.34,5.54-2.98,5.54s-2.99-2.48-2.99-5.54,1.34-5.54,2.99-5.54,2.98,2.48,2.98,5.54"/><path class="cls-5" d="m140.2,120.48c0,3.06-1.34,5.54-2.98,5.54s-2.99-2.48-2.99-5.54,1.34-5.54,2.99-5.54,2.98,2.48,2.98,5.54"/><path class="cls-5" d="m113.49,109.88s6.66,1.09,8.83-2.45c2.17-3.53-.27-5.43-2.72-4.07-1.28.71-4.21,5.98-6.11,6.52"/><path class="cls-5" d="m144.47,110.33s-4.75,4.79-8.58,3.2c-3.83-1.58-2.97-4.56-.19-4.89,1.45-.18,6.92,2.37,8.77,1.69"/><path class="cls-5" d="m127.41,172.53c-17.51,0-31.75-14.24-31.75-31.75v-24.33c0-17.51,14.24-31.75,31.75-31.75s31.75,14.24,31.75,31.75v24.33c0,17.51-14.24,31.75-31.75,31.75m0-85.89c-16.44,0-29.82,13.37-29.82,29.81v24.33c0,16.44,13.38,29.81,29.82,29.81s29.81-13.37,29.81-29.81v-24.33c0-16.44-13.37-29.81-29.81-29.81"/><path class="cls-5" d="m91.35,138.54c-.02-.21-1.49-2.45-1.31-7.99.11-3.42,2.43-6.39,5.77-7.08l.39,1.9c-6.48.94-4.85,13.17-4.85,13.17"/><path class="cls-5" d="m163.58,138.54c.02-.21,1.49-2.45,1.31-7.99-.12-3.42-2.43-6.39-5.77-7.08l-.39,1.9c6.48.94,4.85,13.17,4.85,13.17"/><path class="cls-5" d="m97.5,148.87h-1.43c-6.17,0-11.2-5.02-11.2-11.19v-8.82c0-6.17,5.02-11.2,11.2-11.2h1.43v1.94h-1.43c-5.1,0-9.26,4.15-9.26,9.26v8.82c0,5.1,4.15,9.26,9.26,9.26h1.43v1.94Z"/><path class="cls-5" d="m158.85,148.87h-1.43v-1.94h1.43c5.1,0,9.26-4.15,9.26-9.26v-8.82c0-5.1-4.15-9.26-9.26-9.26h-1.43v-1.94h1.43c6.17,0,11.2,5.02,11.2,11.2v8.82c0,6.17-5.02,11.19-11.2,11.19"/><path class="cls-5" d="m158.27,129.33h2.15c1.17,0,2.11-.95,2.11-2.11v-15.37h-4.26v17.48Z"/><path class="cls-5" d="m96.69,129.33h-2.15c-1.17,0-2.11-.95-2.11-2.11v-15.37h4.26v17.48Z"/><path class="cls-5" d="m146.9,97.14s-24.32.69-30.07-19.97l18.88-.46s-6.08,10.56,11.2,20.43"/><path class="cls-5" d="m111.94,96.72s11.72.69,14.5-19.97l-9.1-.46s2.93,10.56-5.4,20.43"/><path class="cls-5" d="m110.61,103.26s9.54-6.84-1.31-24.64l-7.36,5.37s8.92,6.36,8.67,19.27"/><path class="cls-5" d="m93.18,82.26s-3.59,7.76,8.22,14.66l2.74-6.04s-7.21-.59-10.96-8.62"/><path class="cls-5" d="m90.03,88.69s1,8.48,10.78,9l-.82-6.58s-4.5,2.87-9.96-2.42"/><path class="cls-5" d="m147.53,79.3c0,4.78-8.17,8.66-18.26,8.66s-18.25-3.88-18.25-8.66,8.17-8.66,18.25-8.66,18.26,3.88,18.26,8.66"/><path class="cls-5" d="m156.13,84.01c0,3.01-2.59,5.45-5.79,5.45s-5.79-2.44-5.79-5.45,2.59-5.45,5.79-5.45,5.79,2.44,5.79,5.45"/><path class="cls-5" d="m114.14,84.01c0,3.01-2.59,5.45-5.79,5.45s-5.79-2.44-5.79-5.45,2.59-5.45,5.79-5.45,5.79,2.44,5.79,5.45"/><path class="cls-5" d="m106.9,88.23c0,3.01-2.59,5.45-5.79,5.45s-5.79-2.44-5.79-5.45,2.59-5.45,5.79-5.45,5.79,2.44,5.79,5.45"/><path class="cls-5" d="m162.67,90.15c0,3.01-2.59,5.45-5.79,5.45s-5.79-2.44-5.79-5.45,2.59-5.45,5.79-5.45,5.79,2.44,5.79,5.45"/><path class="cls-5" d="m124.77,80.27c0,3.54-3.05,6.41-6.82,6.41s-6.82-2.87-6.82-6.41,3.05-6.41,6.82-6.41,6.82,2.87,6.82,6.41"/><path class="cls-5" d="m135.95,78.91c0,3.54-3.05,6.41-6.82,6.41s-6.82-2.87-6.82-6.41,3.05-6.41,6.82-6.41,6.82,2.87,6.82,6.41"/><path class="cls-5" d="m143.49,103.58s2.96-10.56-1.51-16.58l8.76,2.93s2.56,11.09-7.25,13.64"/><path class="cls-5" d="m149.46,103.58s2.96-10.56-1.51-16.58l8.76,2.93s2.56,11.09-7.25,13.64"/><path class="cls-5" d="m106.95,154.72c0,.46-.38.84-.84.84s-.84-.38-.84-.84.38-.84.84-.84.84.38.84.84"/><path class="cls-5" d="m110.14,161.1c0,.46-.38.84-.84.84s-.84-.38-.84-.84.38-.84.84-.84.84.38.84.84"/><path class="cls-5" d="m118.03,163.45c0,.46-.38.84-.84.84s-.84-.38-.84-.84.38-.84.84-.84.84.38.84.84"/><path class="cls-5" d="m124.23,159.09c0,.46-.38.84-.84.84s-.84-.38-.84-.84.38-.84.84-.84.84.38.84.84"/><path class="cls-5" d="m128.77,164.12c0,.46-.38.84-.84.84s-.84-.38-.84-.84.38-.84.84-.84.84.38.84.84"/><path class="cls-5" d="m133.47,158.75c0,.46-.38.84-.84.84s-.84-.38-.84-.84.38-.84.84-.84.84.38.84.84"/><path class="cls-5" d="m139.17,163.45c0,.46-.38.84-.84.84s-.84-.38-.84-.84.38-.84.84-.84.84.38.84.84"/><path class="cls-5" d="m144.54,157.91c0,.46-.38.84-.84.84s-.84-.38-.84-.84.38-.84.84-.84.84.38.84.84"/><path class="cls-5" d="m152.93,152.88c0,.46-.38.84-.84.84s-.84-.38-.84-.84.38-.84.84-.84.84.38.84.84"/><path class="cls-5" d="m102.25,148.51c0,.46-.38.84-.84.84s-.84-.38-.84-.84.38-.84.84-.84.84.38.84.84"/><path class="cls-5" d="m154.61,144.15c0,.46-.38.84-.84.84s-.84-.38-.84-.84.38-.84.84-.84.84.38.84.84"/><path class="cls-5" d="m146.56,147.84c0,.46-.38.84-.84.84s-.84-.38-.84-.84.38-.84.84-.84.84.38.84.84"/><path class="cls-5" d="m110.3,149.02c0,.46-.38.84-.84.84s-.84-.38-.84-.84.38-.84.84-.84.84.38.84.84"/><path class="cls-5" d="m101.75,141.13c0,.46-.38.84-.84.84s-.84-.38-.84-.84.38-.84.84-.84.84.38.84.84"/><path class="cls-5" d="m116.18,157.07c0,.46-.38.84-.84.84s-.84-.38-.84-.84.38-.84.84-.84.84.38.84.84"/><path class="cls-5" d="m42.54,131.19c.72-.33,4.03-1.49,4.32-.21.14.61-.5,1.48-.82,1.93-.56.79-1.24,1.51-1.89,2.22-2.48,2.71-5.2,5.19-7.39,8.16-1.96,2.66-3.43,6.38-1.29,9.4,2.11,2.97,5.97,2.16,8.99,1.37,6.36-1.68,12.26-5.37,16.49-10.41,1.08-1.29,2.4-2.75,2.52-4.51.1-1.44-.73-3.03-2.2-3.41-1.62-.43-3.58.57-4.95,1.35-1.39.79-3.1,1.9-3.42,3.59-.81,4.27,5.99,4.49,8.61,4.74,4.55.44,9.14.33,13.68-.27.76-.1,1.39-.57,1.4-1.4,0-.68-.65-1.5-1.4-1.4-3.4.46-6.83.64-10.26.51-1.71-.07-3.42-.2-5.12-.42-.98-.12-3.23-.11-3.96-.98-.63-.75,1.99-2.01,2.58-2.29.31-.15,1.79-.94,2.11-.71.41.3,0,1.08-.16,1.37-.65,1.22-1.73,2.31-2.68,3.3-.97,1.01-2,1.96-3.1,2.83-2.18,1.72-4.64,3.16-7.22,4.21-1.3.53-2.63.96-3.99,1.3-1.3.33-2.83.79-4.17.54-1.3-.24-1.95-1.41-2-2.65-.06-1.52.79-2.94,1.63-4.15,1.81-2.6,4.17-4.78,6.35-7.06,1.89-1.98,5.24-4.97,4.35-8.08-1.03-3.57-6-2.37-8.41-1.28-1.64.74-.22,3.16,1.42,2.42"/><path class="cls-5" d="m164.43,177.82c4.2-.9,7.9-3.45,10.35-6.96,2.14-3.07,3.79-7.88,1.64-11.38-.95-1.55-2.71-2.71-4.58-2.59-1.69.11-3.11,1.28-3.43,2.96-.4,2.07.79,4.41,1.42,6.34.75,2.29,1.55,4.57,2.43,6.82,2.04,5.19,4.54,10.14,7.97,14.56.97,1.25,3.13-.4,2.2-1.7-1.76-2.48-3.63-5.03-4.43-8.01-.67-2.45-.69-5.75,1.6-7.39.73-.52,1.74-.89,2.52-.27.79.62.83,1.86.71,2.78-.34,2.51-2.14,4.89-4.13,6.36.69.53,1.37,1.06,2.06,1.58.29-1.9,1.89-3.19,3.7-3.65,2.19-.56,3.74,1.05,5.83,1.21,2.37.18,4.37-1.57,5.12-3.72.8-2.29.38-4.98-.24-7.27-.99-3.64-3.93-10.15-8.8-8.59-1.99.64-3.23,2.65-2.48,4.69.73,2,3.1,3.61,5.19,3.85,2.52.29,4.06-1.73,4.77-3.89.94-2.84,1.3-5.99,1.89-8.92h-2.71c.51,2.64,1.68,5.08,3.38,7.16,1.55,1.91,3.99,4.21,6.61,4.25,2.65.05,4.13-2.3,4.95-4.51,1.02-2.73,1.48-5.72,1.2-8.62-.26-2.75-1.07-5.37-2.14-7.91-1-2.38-2.08-5.22-4.09-6.95-1.64-1.4-4.24-1.91-5.65.11-1.53,2.2-.22,4.41,1.12,6.27,3.95,5.5,8.81,10.25,13.5,15.11,1.08,1.12,3.12-.36,2.2-1.7-1.28-1.87-2.13-3.97-2.84-6.11-.38-1.14-.72-2.29-1.04-3.45-.24-.85-.94-2.34-.48-3.19.46-.83,1.6-.57,2.22-.08.68.54,1.06,1.37,1.14,2.21.15,1.59-.75,3.43-2.29,4.03.53.69,1.05,1.37,1.58,2.06.63-1.1,2.29-.92,3.36-.8,1.68.19,3.37.47,4.96-.28,3.04-1.44,2.93-5.21,1.56-7.79-.85-1.6-3.27-.18-2.42,1.42.48.9.86,2.17.37,3.15-.63,1.27-2.47.96-3.61.82-2.42-.29-5.27-.35-6.65,2.07-.56.98.39,2.53,1.58,2.06,2.68-1.05,4.46-3.69,4.36-6.6-.11-2.97-2.56-6.06-5.78-5.55-1.6.25-2.92,1.4-3.23,3.02-.31,1.62.36,3.33.81,4.87.95,3.29,2.03,6.7,3.98,9.55.73-.57,1.47-1.13,2.2-1.7-3.23-3.35-6.54-6.63-9.57-10.16-1.56-1.81-3.07-3.68-4.38-5.67-.44-.67-.99-2.66.52-2,1.72.74,2.61,3.29,3.34,4.86.93,1.99,1.73,4.05,2.21,6.2.48,2.12.58,4.35.21,6.49-.3,1.72-.76,4.26-2.13,5.51-1.69,1.55-4.45-1.51-5.47-2.72-1.5-1.78-2.44-3.93-2.88-6.2-.26-1.34-2.43-1.33-2.71,0-.45,2.2-.9,4.41-1.34,6.61-.24,1.2-.43,3.17-1.52,3.96-1.02.73-3.44-.75-3.68-1.9-.32-1.51,1.99-1,2.63-.51,1.39,1.09,2.28,3.07,2.87,4.69.66,1.8,1.15,3.82,1.03,5.76-.1,1.51-1.02,3.54-2.86,3.12-1.68-.38-2.96-1.38-4.77-1.3-3.26.13-6.8,2.47-7.32,5.86-.16,1.05.96,2.39,2.06,1.58,2.89-2.12,5.31-5.39,5.55-9.08.22-3.32-2.31-6.41-5.83-5.41-3.68,1.05-5.23,5.1-4.99,8.61.31,4.35,2.72,7.97,5.18,11.42.73-.57,1.47-1.13,2.2-1.7-4.8-6.18-7.59-13.67-9.98-21.04-.29-.89-.58-1.78-.85-2.68-.16-.52-.46-1.26-.13-1.78.54-.84,1.76-.24,2.29.27,2.28,2.17.53,6.39-.84,8.54-2.04,3.2-5.33,5.43-9.03,6.22-1.76.38-1.02,3.08.75,2.7"/><path class="cls-5" d="m63.79,154.49c-1.5-2.89-5.09-2.98-7.82-2.02-2.64.92-5.08,2.83-5.86,5.62-.74,2.62.1,5.59,2.44,7.1,2.34,1.52,5.89,1.61,8.52.87,2.66-.75,4.78-2.74,5.12-5.56.31-2.55-1.58-6.01-4.6-5.16-1.28.36-2.45,1.48-2.82,2.77-.42,1.47.33,2.77,1.48,3.63,1.28.95,2.38,1.99,3.95,2.57,1.95.73,4.11,1,6.16,1.34,1.14.19,2.28.37,3.42.52.73.1,1.54.28,2.28.2,1.78-.18,1.8-2.99,0-2.8-.89.09-1.88-.14-2.75-.27-1.33-.2-2.66-.42-3.99-.66-2.27-.4-4.59-.8-6.28-2.26-.39-.34-.85-.62-1.23-.97-.37-.34-.43-.49-.12-.89.29-.38.65-.6,1.08-.34,1.35.84.54,3.15-.3,4-1.39,1.42-3.68,1.58-5.55,1.44-1.84-.14-3.75-.78-4.18-2.78-.44-2.04.78-3.9,2.47-4.94,1.61-.99,5.02-2.21,6.16,0,.83,1.6,3.25.19,2.42-1.42"/><path class="cls-5" d="m81.66,173.54c1.79-1.63,1.93-4.44.71-6.46-1.33-2.22-3.94-3.17-6.4-3.42-5.24-.53-11.4,2.54-11.63,8.4-.09,2.37,1.33,4.62,3.38,5.77,1.88,1.05,4.1,1.13,6.16.71,3.79-.77,6.37-3.23,8.79-6.07,2.84-3.32,5.29-7.06,8.36-10.17,1.27-1.29-.71-3.27-1.98-1.98-2.02,2.05-3.72,4.44-5.51,6.69-1.88,2.36-3.77,5-6.14,6.91-1.99,1.61-5.47,2.79-7.97,1.64-1.61-.74-2.56-2.39-2.19-4.15.42-1.99,1.99-3.56,3.83-4.33,2.15-.91,5.05-1,7.19,0,1.61.76,3.06,2.99,1.42,4.48-1.34,1.22.65,3.2,1.98,1.98"/><path class="cls-5" d="m81.16,169.92c-1.63,1.6-2.68,3.81-3.43,5.95-.69,1.96-1.36,4.58.08,6.36,1.6,1.97,4.43,1.56,6.49.64,2.11-.94,3.81-2.54,5.79-3.71.5-.29,1-.56,1.54-.76.21-.07.6-.1.77-.23l.25-.06c-.35-.67-.56-.81-.63-.42-.18.12-.4.83-.55,1.04-.3.41-.67.78-1.01,1.16-1.28,1.38-2.61,2.93-2.22,4.95.71,3.66,4.55,4.1,7.56,3.28,3.26-.89,7.05-2.83,9.12-5.58-.85-.36-1.71-.72-2.56-1.08-1.21,4.51-3.42,8.62-5.79,12.61-1.18,1.99-2.4,3.95-3.58,5.94-1.11,1.87-2.04,3.93-3.37,5.66-.91,1.18-2.82,3.03-4.49,2.19-1.42-.72.85-3.71,1.42-4.52,2.25-3.18,5.69-5.53,9.49-6.39,4.48-1.01,9.42.23,12.86,3.28,1.35,1.19,3.34-.78,1.98-1.98-3.82-3.39-8.97-4.94-14.03-4.27-4.87.65-9.26,3.4-12.23,7.28-1.31,1.72-3.13,4.28-2.72,6.56.43,2.38,3.01,3.32,5.17,2.9,2.38-.47,4.18-2.39,5.46-4.33,1.48-2.24,2.71-4.68,4.1-6.98,3.31-5.46,6.77-10.97,8.44-17.2.44-1.64-1.65-2.29-2.56-1.08.15-.2-.26.27-.33.33-.16.16-.33.31-.5.46-.48.41-1.01.78-1.54,1.12-1.24.8-2.57,1.52-3.96,2.02-1.32.48-5.43,1.61-5.21-1.06.05-.58.56-1.12.93-1.53.62-.7,1.28-1.36,1.84-2.11.99-1.33,1.96-3.91-.07-4.84-1.8-.82-4.35.76-5.81,1.74-1.65,1.1-3.2,2.5-5.07,3.22-.72.28-2.18.74-2.79-.01-.55-.68-.09-2.08.12-2.82.57-2.03,1.51-4.25,3.04-5.75,1.29-1.27-.69-3.25-1.98-1.98"/><path class="cls-5" d="m121.94,183.23c-.9,7.56-1.35,15.15-1.37,22.76,0,1.81,2.8,1.81,2.81,0,.01-7.61.47-15.2,1.37-22.76.21-1.79-2.59-1.77-2.8,0"/><path class="cls-5" d="m118.73,187.49c1.45-1.16,3.12-2.27,4.82-2.85.32-.11.65-.21.98-.28.15-.04.3-.07.45-.1.06-.01.12-.02.18-.03.27-.05-.12,0,.04-.01.48-.06.96-.07,1.45-.06,1.3.03,2.59.19,3.54,1.19,1.35,1.42.62,3.6-.62,4.81-1.38,1.36-4.05,2.69-5.93,1.62-1.57-.9-2.99,1.53-1.42,2.42,2.54,1.45,5.74.59,8.01-.99,2.37-1.65,3.97-4.37,3.33-7.32-.94-4.3-6.09-5.09-9.72-4.26-2.66.61-4.99,2.19-7.1,3.87-.59.47-.49,1.49,0,1.98.59.58,1.39.47,1.98,0"/><path class="cls-5" d="m138.55,182.44c-4.18,1.24-6.73,5.93-4.17,9.85,2.54,3.89,7.97,4.43,11.09.92,1.54-1.73,2.24-3.93,1.92-6.23-.31-2.24-.82-4.78-3.15-5.73-1.91-.78-5.05-.52-6.16,1.46-1.05,1.87.1,4.32,1.92,5.18,2.58,1.21,5.72-.08,8.05-1.3,2.35-1.23,4.43-2.97,6.08-5.04.47-.6.57-1.4,0-1.98-.48-.49-1.51-.59-1.98,0-1.98,2.48-4.57,4.46-7.59,5.5-1.07.37-3.2,1.08-3.91-.24-.66-1.21,1.18-1.25,1.98-1.14,1.54.21,1.67,1.93,1.91,3.19.27,1.45.07,2.81-.81,4.02-1.63,2.24-4.63,2.53-6.54.48-2.15-2.31-.68-5.42,2.09-6.24,1.73-.51.99-3.22-.75-2.7"/><path class="cls-3" d="m170,67.52c-1.93,1.85-5.25,10.12-5.25,10.12,0,0,8.42-2.93,10.35-4.77,1.93-1.85,2.36-4.54.95-6.02-1.41-1.48-4.12-1.18-6.05.67"/><path class="cls-3" d="m185.71,75.78c-2.58.72-9.39,6.46-9.39,6.46,0,0,8.8,1.38,11.38.66,2.57-.72,4.22-2.89,3.67-4.86-.55-1.97-3.08-2.98-5.66-2.26"/><path class="cls-3" d="m184.91,91.63c-2.58-.7-11.37.74-11.37.74,0,0,6.86,5.69,9.44,6.39,2.58.7,5.11-.33,5.64-2.3.54-1.97-1.12-4.14-3.7-4.84"/></g></svg>