<?xml version="1.0" encoding="utf-8"?>
<!-- Generator: Adobe Illustrator 27.1.1, SVG Export Plug-In . SVG Version: 6.00 Build 0)  -->
<svg version="1.1" id="Vrstva_1" xmlns="http://www.w3.org/2000/svg" xmlns:xlink="http://www.w3.org/1999/xlink" x="0px" y="0px"
	 viewBox="0 0 151 50" style="enable-background:new 0 0 151 50;" xml:space="preserve">
<style type="text/css">
	.st0{fill:none;stroke:#189CD9;stroke-width:3;stroke-miterlimit:10;}
</style>
<path class="st0" d="M150.82,21.5c-5.39,0-5.39,7.56-10.79,7.56s-5.39-7.56-10.78-7.56s-5.39,7.56-10.79,7.56s-5.39-7.56-10.78-7.56
	s-5.39,7.56-10.78,7.56s-5.39-7.56-10.79-7.56s-5.39,7.56-10.79,7.56s-5.39-7.56-10.79-7.56s-5.39,7.56-10.79,7.56
	s-5.39-7.56-10.79-7.56s-5.39,7.56-10.79,7.56s-5.39-7.56-10.78-7.56s-5.39,7.56-10.79,7.56S5.2,21.5-0.2,21.5"/>
</svg>
