<?xml version="1.0" encoding="UTF-8"?><svg id="Vrstva_1" xmlns="http://www.w3.org/2000/svg" xmlns:xlink="http://www.w3.org/1999/xlink" viewBox="0 0 1903.16 269.85"><defs><style>.cls-1{fill:none;}.cls-2{clip-path:url(#clippath);}.cls-3{fill:#1d1d1b;}.cls-4{fill:#189cd9;}</style><clipPath id="clippath"><rect class="cls-1" x="1945.51" y="56.45" width="207.67" height="163.28"/></clipPath></defs><path class="cls-4" d="m1825.33,84.09c-5.4,0-5.4-7.56-10.79-7.56s-5.4,7.56-10.79,7.56-5.39-7.56-10.79-7.56-5.39,7.56-10.79,7.56-5.39-7.56-10.79-7.56-5.39,7.56-10.79,7.56-5.39-7.56-10.79-7.56-5.39,7.56-10.79,7.56-5.39-7.56-10.79-7.56-5.39,7.56-10.79,7.56-5.39-7.56-10.79-7.56-5.39,7.56-10.79,7.56-5.39-7.56-10.79-7.56-5.39,7.56-10.79,7.56-5.39-7.56-10.79-7.56-5.39,7.56-10.79,7.56-5.39-7.56-10.79-7.56-5.39,7.56-10.79,7.56-5.39-7.56-10.79-7.56-5.39,7.56-10.79,7.56-5.39-7.56-10.79-7.56-5.39,7.56-10.78,7.56-5.39-7.56-10.79-7.56-5.39,7.56-10.79,7.56-5.39-7.56-10.78-7.56-5.39,7.56-10.79,7.56-5.39-7.56-10.78-7.56-5.39,7.56-10.79,7.56-5.39-7.56-10.78-7.56-5.39,7.56-10.79,7.56-5.39-7.56-10.78-7.56-5.39,7.56-10.79,7.56-5.39-7.56-10.79-7.56-5.39,7.56-10.79,7.56-5.39-7.56-10.79-7.56-5.39,7.56-10.79,7.56-5.39-7.56-10.79-7.56-5.39,7.56-10.79,7.56-5.39-7.56-10.78-7.56c-.01,0-.02,0-.03,0-.01,0-.02,0-.03,0-5.38,0-5.4,7.52-10.76,7.56-5.36-.03-5.37-7.56-10.75-7.56-.01,0-.02,0-.03,0-.01,0-.02,0-.03,0-5.38,0-5.4,7.52-10.75,7.56-5.35-.04-5.37-7.56-10.75-7.56-.01,0-.02,0-.04,0-.01,0-.02,0-.04,0-5.38,0-5.4,7.52-10.75,7.56-5.35-.04-5.37-7.56-10.75-7.56h0s-.05,0-.08,0c-5.39,0-5.39,7.56-10.79,7.56s-5.39-7.56-10.79-7.56-5.39,7.56-10.79,7.56-5.39-7.56-10.79-7.56-5.39,7.56-10.79,7.56-5.39-7.56-10.79-7.56-5.39,7.56-10.79,7.56-5.39-7.56-10.79-7.56-5.39,7.56-10.79,7.56-5.39-7.56-10.79-7.56-5.39,7.56-10.79,7.56-5.39-7.56-10.79-7.56-5.39,7.56-10.79,7.56-5.39-7.56-10.79-7.56-5.39,7.56-10.79,7.56-5.39-7.56-10.79-7.56-5.39,7.56-10.78,7.56-5.39-7.56-10.79-7.56-5.39,7.56-10.79,7.56-5.39-7.56-10.78-7.56-5.39,7.56-10.79,7.56-5.39-7.56-10.78-7.56-5.39,7.56-10.79,7.56-5.39-7.56-10.78-7.56-5.39,7.56-10.79,7.56-5.39-7.56-10.78-7.56-5.39,7.56-10.78,7.56-5.39-7.56-10.79-7.56-5.39,7.56-10.79,7.56-5.39-7.56-10.79-7.56-5.39,7.56-10.79,7.56-5.39-7.56-10.79-7.56-5.39,7.56-10.79,7.56-5.39-7.56-10.79-7.56-5.39,7.56-10.79,7.56-5.4-7.52-10.75-7.56h0s-.01,0-.02,0-.01,0-.02,0h0c-5.36.04-5.37,7.56-10.76,7.56s-5.4-7.56-10.79-7.56-5.4,7.56-10.79,7.56-5.39-7.56-10.79-7.56-5.39,7.56-10.79,7.56-5.39-7.56-10.79-7.56-5.39,7.56-10.79,7.56-5.39-7.56-10.79-7.56-5.39,7.56-10.79,7.56-5.39-7.56-10.79-7.56-5.39,7.56-10.79,7.56-5.39-7.56-10.79-7.56-5.39,7.56-10.79,7.56-5.39-7.56-10.79-7.56-5.39,7.56-10.79,7.56-5.39-7.56-10.79-7.56-5.39,7.56-10.79,7.56-5.39-7.56-10.79-7.56-5.39,7.56-10.79,7.56-5.39-7.56-10.79-7.56-5.39,7.56-10.79,7.56-5.39-7.56-10.79-7.56-5.39,7.56-10.79,7.56-5.39-7.56-10.79-7.56-5.39,7.56-10.79,7.56-5.39-7.56-10.78-7.56-5.39,7.56-10.79,7.56-5.39-7.56-10.78-7.56-5.39,7.56-10.79,7.56-5.39-7.56-10.78-7.56-5.39,7.56-10.79,7.56-5.39-7.56-10.78-7.56-5.39,7.56-10.79,7.56-5.39-7.56-10.78-7.56-5.39,7.56-10.79,7.56-5.39-7.56-10.79-7.56-5.39,7.56-10.79,7.56-5.39-7.56-10.79-7.56-5.39,7.56-10.79,7.56-5.39-7.56-10.79-7.56c-.01,0-.02,0-.03,0-.01,0-.02,0-.03,0-5.38,0-5.4,7.52-10.76,7.56-5.36-.03-5.37-7.56-10.75-7.56-.01,0-.02,0-.03,0-.01,0-.02,0-.03,0-5.38,0-5.4,7.52-10.75,7.56-5.35-.04-5.37-7.56-10.75-7.56-.01,0-.02,0-.04,0-.01,0-.02,0-.04,0-5.38,0-5.4,7.52-10.75,7.56-5.35-.04-5.37-7.56-10.75-7.56h0s-.05,0-.08,0c-5.39,0-5.39,7.56-10.79,7.56s-5.39-7.56-10.79-7.56-5.39,7.56-10.79,7.56-5.39-7.56-10.79-7.56-5.39,7.56-10.79,7.56-5.39-7.56-10.79-7.56-5.39,7.56-10.79,7.56-5.39-7.56-10.79-7.56-5.39,7.56-10.79,7.56-5.39-7.56-10.79-7.56-5.39,7.56-10.79,7.56-5.39-7.56-10.79-7.56-5.39,7.56-10.79,7.56-5.39-7.56-10.79-7.56-5.39,7.56-10.79,7.56-5.39-7.56-10.79-7.56-5.39,7.56-10.78,7.56-5.39-7.56-10.79-7.56-5.39,7.56-10.79,7.56-5.39-7.56-10.78-7.56-5.39,7.56-10.79,7.56-5.39-7.56-10.78-7.56-5.39,7.56-10.79,7.56-5.39-7.56-10.78-7.56-5.39,7.56-10.79,7.56-5.39-7.56-10.78-7.56-5.39,7.56-10.78,7.56-5.39-7.56-10.79-7.56-5.39,7.56-10.79,7.56-5.39-7.56-10.79-7.56-5.39,7.56-10.79,7.56-5.39-7.56-10.79-7.56-5.39,7.56-10.79,7.56-5.39-7.56-10.78-7.56-5.39,7.56-10.79,7.56-5.39-7.56-10.79-7.56v116.79h1769.09v-116.79c-5.4,0-5.4,7.56-10.79,7.56Z"/><g class="cls-2"><path class="cls-3" d="m1887.45.19c3.23-.71,6.01-3.01,7.26-6.08.95-2.32.72-6.74-2.76-6.57-3.9.19-1.21,5.76-.56,7.6,1.35,3.81,3,7.55,5.49,10.77.65.84,2.11.05,1.46-.86-1.57-2.2-4.5-6.31-2.12-8.94.41-.45,1.1-.93,1.73-.65.69.31.71,1.2.61,1.84-.23,1.51-1.29,2.9-2.48,3.79.42.32.83.64,1.25.96.24-1.37,1.62-2.34,3-2.3,1.42.04,2.42,1.21,3.92.65,3.06-1.14,2.29-5.4,1.37-7.71-.81-2.04-2.87-5.3-5.5-3.69-2.59,1.58.1,4.66,2.22,4.9,1.39.16,2.33-.87,2.79-2.07.68-1.77.87-3.82,1.25-5.68h-1.64c.33,1.63,1.04,3.13,2.1,4.41.91,1.09,2.28,2.37,3.77,2.48,3.35.25,4.04-5.14,3.92-7.49-.1-1.77-.6-3.47-1.28-5.1-.61-1.46-1.25-3.18-2.46-4.26-.91-.81-2.35-1.2-3.29-.22-.87.9-.69,2.24-.07,3.22,2.37,3.71,5.68,6.8,8.72,9.95.66.68,1.88-.21,1.33-1.03-1.3-1.93-2.02-4.31-2.57-6.56-.18-.74-.05-1.85,1.01-1.36.5.23.82.79.92,1.31.18,1.03-.36,2.22-1.35,2.63l.96,1.25c.53-.85,1.93-.47,2.73-.39.95.1,1.93.06,2.73-.52,1.45-1.05,1.23-3.04.51-4.45-.49-.97-1.96-.11-1.46.86.35.68.65,1.85-.19,2.32-.71.4-1.82.03-2.58-.02-1.27-.09-2.51.22-3.21,1.35-.36.58.25,1.54.96,1.25,1.62-.67,2.67-2.19,2.63-3.98-.04-1.78-1.5-3.61-3.41-3.38-2.29.28-2.19,2.52-1.71,4.22.61,2.19,1.28,4.44,2.56,6.34.44-.34.89-.68,1.33-1.03-2.33-2.41-4.72-4.76-6.82-7.38-.3-.38-2.76-3.04-1.66-3.49,1.08-.44,2.45,3.17,2.71,3.75,1.28,2.98,1.85,6.36.42,9.42-.35.76-.86,1.36-1.75.98-.65-.27-1.25-.83-1.74-1.34-1.12-1.16-1.81-2.6-2.13-4.17-.16-.81-1.47-.81-1.64,0-.29,1.44-.58,2.88-.88,4.32-.12.56-.22,1.19-.54,1.68-.45.69-1.06.52-1.69.13-.5-.3-1.36-1.19-.37-1.5.7-.22,1.33.45,1.7.94.85,1.14,1.37,2.56,1.63,3.94.2,1.08.41,3.62-1.3,3.66-.68.02-1.36-.53-2.01-.7-.46-.12-.92-.15-1.39-.11-1.93.17-3.86,1.55-4.21,3.52-.11.64.59,1.45,1.25.96,1.72-1.28,3.21-3.23,3.35-5.45.13-1.98-1.29-3.87-3.43-3.33-2.15.54-3.15,2.82-3.12,4.86.04,2.76,1.6,5.1,3.14,7.27l1.46-.86c-1.76-2.28-3.12-4.82-4.21-7.47-.54-1.31-1.02-2.65-1.48-3.99-.24-.72-.48-1.45-.71-2.18-.14-.45-.61-1.35-.39-1.82.56-1.23,1.87.55,1.99,1.19.21,1.16-.17,2.38-.71,3.4-1.2,2.26-3.33,3.83-5.82,4.38-1.07.24-.61,1.87.45,1.64"/><path class="cls-3" d="m1837.41-2.4c1.04-.95,1.14-2.51.53-3.73-.7-1.39-2.28-2.03-3.73-2.22-3.16-.4-6.92,1.3-7.25,4.82-.13,1.47.64,2.85,1.88,3.63,1.08.68,2.4.77,3.63.56,2.4-.4,4.04-1.93,5.55-3.71,1.72-2.01,3.2-4.27,5.06-6.15.77-.78-.43-1.98-1.2-1.2-1.21,1.23-2.23,2.67-3.31,4.01-1.14,1.43-2.28,3-3.7,4.18-1.22,1.01-3.31,1.71-4.84,1.03-1.01-.45-1.57-1.48-1.34-2.56.26-1.2,1.24-2.15,2.36-2.6,1.28-.51,2.94-.57,4.21-.01,1,.44,1.96,1.81.94,2.75-.81.74.39,1.94,1.2,1.2"/><path class="cls-3" d="m1837.1-4.59c-1.51,1.53-4.01,6.2-1.54,7.87,1.26.86,2.93.29,4.14-.39.73-.42,1.4-.95,2.09-1.43.53-.36,1.68-1.28,2.38-1.04-.17-.13-.34-.26-.51-.39.25.45-1.23,1.71-1.49,2.03-.48.59-.86,1.26-.82,2.05.07,1.44,1.28,2.42,2.64,2.53,2.57.21,5.94-1.59,7.49-3.6-.52-.22-1.03-.44-1.55-.65-.89,3.27-2.62,6.19-4.37,9.07-.84,1.38-1.67,2.77-2.46,4.18-.56.99-1.89,3.33-3.39,2.78-1.37-.51.99-3.29,1.56-3.88,1.02-1.07,2.27-1.93,3.67-2.44,3.03-1.11,6.51-.48,8.94,1.64.82.72,2.02-.48,1.2-1.2-4.89-4.27-12.22-3.12-16.01,2-.77,1.04-1.85,2.63-1.47,4,.32,1.15,1.57,1.67,2.67,1.6,3.12-.21,4.57-4.22,5.94-6.48,2.08-3.45,4.29-6.89,5.35-10.82.27-1-.99-1.37-1.55-.65-1.09,1.42-3.6,2.59-5.34,2.76-.76.07-1.93-.22-1.57-1.26.37-1.08,1.65-1.71,2.09-2.81.49-1.21-.15-2.4-1.55-2.15-1.42.25-2.6,1.2-3.75,2.01-.9.63-3.98,2.49-3.58,0,.23-1.43.97-3.09,1.99-4.12.77-.78-.43-1.98-1.2-1.2"/><path class="cls-3" d="m1861.76,3.46c-.54,4.57-.82,9.16-.83,13.76,0,1.09,1.69,1.09,1.7,0,0-4.6.28-9.19.83-13.76.13-1.08-1.57-1.07-1.7,0"/><path class="cls-3" d="m1859.82,6.04c.88-.7,1.88-1.37,2.91-1.72.19-.07.39-.12.59-.17.09-.02.18-.04.27-.06.04,0,.07-.01.11-.02.17-.03-.08,0,.03,0,.29-.03.58-.05.88-.04.79.02,1.57.12,2.14.72.82.86.37,2.17-.37,2.91-.84.83-2.45,1.63-3.59.98-.95-.54-1.81.92-.86,1.46,1.53.88,3.47.36,4.84-.6,1.43-1,2.4-2.64,2.01-4.42-.57-2.6-3.68-3.08-5.88-2.58-1.61.37-3.02,1.33-4.29,2.34-.36.29-.3.9,0,1.2.35.35.84.29,1.2,0"/><path class="cls-3" d="m1871.8,2.98c-2.53.75-4.07,3.59-2.52,5.95,1.54,2.35,4.82,2.68,6.71.55.93-1.04,1.35-2.38,1.16-3.77-.19-1.35-.5-2.89-1.9-3.46-1.16-.47-3.05-.31-3.72.88-.63,1.13.06,2.61,1.16,3.13,1.56.73,3.46-.05,4.87-.79,1.42-.74,2.68-1.79,3.68-3.05.29-.36.35-.85,0-1.2-.29-.3-.91-.36-1.2,0-1.19,1.5-2.76,2.7-4.59,3.33-.65.22-1.93.65-2.36-.14-.4-.73.72-.76,1.2-.69.93.13,1.01,1.17,1.15,1.93.16.88.04,1.7-.49,2.43-.98,1.36-2.8,1.53-3.95.29-1.3-1.39-.41-3.28,1.26-3.77,1.04-.31.6-1.95-.45-1.64"/></g></svg>