<?xml version="1.0" encoding="UTF-8"?><svg id="Vrstva_1" xmlns="http://www.w3.org/2000/svg" viewBox="0 0 987.64 269.85"><defs><style>.cls-1{fill:#189cd9;}</style></defs><path class="cls-1" d="m925.31,84.09c-5.4,0-5.4-7.56-10.79-7.56s-5.4,7.56-10.79,7.56-5.39-7.56-10.79-7.56-5.39,7.56-10.79,7.56-5.39-7.56-10.79-7.56-5.39,7.56-10.79,7.56-5.39-7.56-10.79-7.56-5.39,7.56-10.79,7.56-5.39-7.56-10.79-7.56-5.39,7.56-10.79,7.56-5.39-7.56-10.79-7.56-5.39,7.56-10.79,7.56-5.39-7.56-10.79-7.56-5.39,7.56-10.79,7.56-5.39-7.56-10.79-7.56-5.39,7.56-10.79,7.56-5.39-7.56-10.79-7.56-5.39,7.56-10.79,7.56-5.39-7.56-10.79-7.56-5.39,7.56-10.79,7.56-5.39-7.56-10.79-7.56-5.39,7.56-10.79,7.56-5.39-7.56-10.79-7.56-5.39,7.56-10.79,7.56-5.39-7.56-10.78-7.56-5.39,7.56-10.79,7.56-5.39-7.56-10.78-7.56-5.39,7.56-10.79,7.56-5.39-7.56-10.78-7.56-5.39,7.56-10.79,7.56-5.39-7.56-10.78-7.56-5.39,7.56-10.79,7.56-5.39-7.56-10.78-7.56-5.39,7.56-10.79,7.56-5.39-7.56-10.79-7.56-5.39,7.56-10.79,7.56-5.39-7.56-10.79-7.56-5.39,7.56-10.79,7.56-5.39-7.56-10.79-7.56c-.01,0-.02,0-.03,0-.01,0-.02,0-.03,0-5.38,0-5.4,7.52-10.76,7.56-5.36-.03-5.37-7.56-10.75-7.56-.01,0-.02,0-.03,0-.01,0-.02,0-.03,0-5.38,0-5.4,7.52-10.75,7.56-5.35-.04-5.37-7.56-10.75-7.56-.01,0-.02,0-.04,0-.01,0-.02,0-.04,0-5.38,0-5.4,7.52-10.75,7.56-5.35-.04-5.37-7.56-10.75-7.56h0s-.05,0-.08,0c-5.39,0-5.39,7.56-10.79,7.56s-5.39-7.56-10.79-7.56-5.39,7.56-10.79,7.56-5.39-7.56-10.79-7.56-5.39,7.56-10.79,7.56-5.39-7.56-10.79-7.56-5.39,7.56-10.79,7.56-5.39-7.56-10.79-7.56-5.39,7.56-10.79,7.56-5.39-7.56-10.79-7.56-5.39,7.56-10.79,7.56-5.39-7.56-10.79-7.56-5.39,7.56-10.79,7.56-5.39-7.56-10.79-7.56-5.39,7.56-10.79,7.56-5.39-7.56-10.79-7.56-5.39,7.56-10.78,7.56-5.39-7.56-10.79-7.56-5.39,7.56-10.79,7.56-5.39-7.56-10.78-7.56-5.39,7.56-10.79,7.56-5.39-7.56-10.78-7.56-5.39,7.56-10.79,7.56-5.39-7.56-10.78-7.56-5.39,7.56-10.79,7.56-5.39-7.56-10.78-7.56-5.39,7.56-10.78,7.56-5.39-7.56-10.79-7.56-5.39,7.56-10.79,7.56-5.39-7.56-10.79-7.56-5.39,7.56-10.79,7.56-5.39-7.56-10.79-7.56-5.39,7.56-10.79,7.56-5.39-7.56-10.78-7.56-5.39,7.56-10.79,7.56-5.39-7.56-10.79-7.56v116.79h884.56v-116.79c-5.4,0-5.4,7.56-10.79,7.56Z"/></svg>