<?xml version="1.0" encoding="utf-8"?>
<!-- Generator: Adobe Illustrator 27.5.0, SVG Export Plug-In . SVG Version: 6.00 Build 0)  -->
<svg version="1.1" id="Vrstva_1" xmlns="http://www.w3.org/2000/svg" xmlns:xlink="http://www.w3.org/1999/xlink" x="0px" y="0px"
	 viewBox="0 0 754.7 269.9" style="enable-background:new 0 0 754.7 269.9;" xml:space="preserve">
<style type="text/css">
	.st0{fill:#020203;}
	.st1{fill:#FFFFFF;}
	.st2{fill:#009FE3;}
</style>
<g>
	<g>
		<path class="st0" d="M246,173.7c-0.2,0-0.4,0-0.7,0c-4-0.3-7.2-1.8-9.5-4.7c-4.2-5.3-4.9-14.9-2.3-30.4c1.6-9.2,3.5-20.6,2.4-22.6
			c-0.1,0-0.3-0.1-0.9-0.2c-2-0.3-4.9,2.5-7.3,7.1c-1,1.8-3.2,2.5-5,1.5c-1.8-1-2.5-3.2-1.5-5c4.2-7.9,9.5-11.8,15-10.9
			c1,0.1,3.9,0.6,5.7,3.2c2.8,4,1.9,10.3-1.1,28.2c-2.7,16-1.1,22.2,0.8,24.5c0.6,0.8,1.7,1.7,4.2,1.9c5.2,0.3,13.9-11.1,18.5-21.5
			c1.9-4.4,3.7-9.7,4.9-14.7c-2.9,0.3-5.3-0.1-7.1-1.3c-1.7-1.1-3.7-3.3-3.6-7.7c0.1-5.4,3.1-11,7.3-13.5c2.8-1.7,5.8-1.9,8.5-0.5
			c3.6,1.8,4.6,6.4,4.3,11.9c10.2-5.4,24.4-17.9,24.5-18.1c1.5-1.4,3.9-1.2,5.2,0.3c1.4,1.5,1.2,3.9-0.3,5.2
			c-0.7,0.6-16.5,14.7-27.7,20c-1,0.5-2,0.9-3,1.3c-2.2,10-6.3,19.8-6.4,20C271,148,259.6,173.7,246,173.7z M270.7,113.6
			c-0.2,0-0.5,0.1-1,0.3c-1.7,1-3.7,4.2-3.7,7.3c0,1,0.2,1.3,0.2,1.3c0.2,0.2,1.6,0.5,4.7-0.4c0.7-4.1,0.8-7.4,0.1-8.5
			C270.9,113.6,270.8,113.6,270.7,113.6z"/>
	</g>
	<g>
		<path class="st0" d="M287.8,176.2c-1.7,0-3.5-0.3-5.3-0.9c-5-1.6-8.3-5.9-9.1-11.7c-1.2-8.6,3.3-18.1,10.9-23.2
			c5-3.3,10.6-1.9,14.2-0.1c1-0.3,2.1-0.5,3.2-0.5c3.2,0,5.9,1.4,7.5,3.8c1.1,1.7,2.1,4.4,1.6,8.4c2.4-0.6,4.8-1.6,6.7-3.3
			c2.7-2.4,5.5-4.8,8.3-6.8c0.1-0.1,0.2-0.1,0.3-0.2c5.3-3.7,10.7-6.1,16-5.3c11.1,1.6,12.3,9.8,12.1,16.7
			c-0.3,9.7-7.1,19.4-15.1,21.6c-9.3,2.6-17.1-0.8-19.9-8.7c-1-3-1.1-6.1-0.6-9c-3,1.6-6.5,2.6-10.1,2.9
			C304.5,168.9,296.7,176.2,287.8,176.2z M291.1,145.9c-0.9,0-1.9,0.2-2.7,0.8c-5.9,3.9-8.3,11.1-7.7,16c0.3,2.1,1.2,4.7,4.1,5.6
			c6.7,2.2,12.4-3.2,15.7-8.8c-3.2-0.7-5.8-2.1-7.5-4c-2.4-2.7-3-6.1-1.5-9.2c0-0.1,0.1-0.2,0.1-0.3
			C291.4,145.9,291.2,145.9,291.1,145.9z M330.7,147.7c-2.7,3.7-6.3,10.8-4.5,16c1.9,5.6,7.6,4.9,10.9,4c4.4-1.2,9.5-7.8,9.7-14.7
			c0.2-7.7-2-8.6-5.7-9.1C338,143.4,334.4,145.1,330.7,147.7z M301.7,147.3c-1.5,0-3.1,1.1-3.5,2c-0.1,0.3-0.3,0.6,0.4,1.3
			c0.6,0.7,2.3,1.5,4.7,1.9c0.5-2.4,0.3-3.9-0.2-4.6C303,147.7,302.7,147.3,301.7,147.3z"/>
	</g>
	<g>
		<path class="st0" d="M508.9,174.5c-1.7,0-3.5-0.3-5.3-0.9c-5-1.6-8.3-5.9-9.1-11.7c-1.2-8.6,3.3-18.1,10.9-23.2
			c4.9-3.3,10.6-1.9,14.2-0.1c1-0.3,2.1-0.5,3.2-0.5c3.2,0,5.9,1.4,7.5,3.8c0.8,1.2,1.5,2.8,1.7,5.1c2.7-1.7,5.9-4.2,9.6-8.1
			c1.4-1.5,3.7-1.6,5.2-0.2c1.5,1.4,1.6,3.7,0.2,5.2c-6.4,6.9-12,10.4-16.5,12.1c-0.1,0.2-0.1,0.4-0.2,0.6
			C526.6,166.2,518.4,174.5,508.9,174.5z M512.2,144.2c-0.9,0-1.9,0.2-2.7,0.8c-5.9,3.9-8.3,11.1-7.7,16c0.3,2.1,1.2,4.7,4.1,5.6
			c6.8,2.2,12.6-3.4,15.8-9.1c-3.1-0.3-5.8-1.6-7.6-3.7c-2.4-2.7-3-6.1-1.5-9.2c0-0.1,0.1-0.2,0.1-0.3
			C512.5,144.2,512.4,144.2,512.2,144.2z M522.8,145.6c-1.5,0-3.1,1.1-3.5,2c-0.1,0.3-0.3,0.6,0.4,1.3c0.7,0.8,1.9,1.3,3.5,1.3
			c0.4,0,0.8,0,1.4-0.1c0.3-2,0.1-3.3-0.3-3.9C524.1,146,523.8,145.6,522.8,145.6z"/>
	</g>
	<g>
		<path class="st0" d="M390.4,225.9c-2.3,0-5.3-0.9-8.4-3.8c-2.2-2-3.3-5-3.4-8.9c0-10.1,7.8-25.3,14.5-31.6
			c2.5-2.4,6.2-5.5,10.3-8.8c0.6-3.4,1.2-6.8,1.8-10.1c-1.9,2.5-4,4.7-6,6.4c-2.6,2.2-10.6,9-18.2,1.4c-4.7-4.7-1.8-12.5,0.7-19.5
			c1-2.7,2.1-5.8,2.2-7.4c-0.6,0.4-1.4,1.1-2.2,2.2c-1,1.3-2.7,4.4-4.5,7.7c-3.2,5.8-7.1,13-11,17.4c-4,4.4-8.6,6.2-12.5,4.7
			c-2.3-0.8-6.3-3.5-6.6-12c-0.3-8.9,8.4-49.9,9.4-54.6c0.4-2,2.4-3.3,4.4-2.8c2,0.4,3.3,2.4,2.8,4.4c-2.6,12.4-9.5,46-9.2,52.8
			c0.1,3.5,1.1,5.1,1.8,5.3c0.6,0.2,2.4-0.3,4.5-2.7c3.3-3.7,7-10.5,10-16c2.1-3.9,3.8-7,5.2-8.7c3.6-4.6,7.8-6.5,11.2-5.3
			c1.3,0.5,4.4,2.2,4.3,7.7c-0.1,2.8-1.3,6.2-2.6,9.8c-1.1,3.1-3.7,10.4-2.4,11.7c1.3,1.3,2.7,2.8,8.1-1.8
			c5.8-4.9,12.5-15.8,14.7-23.7c0.5-1.9,2.4-3.1,4.4-2.7c1.9,0.4,3.2,2.3,2.9,4.2c-0.2,1-2,11.8-4.2,24.8c5.9-4.4,11.8-8.4,16-10.6
			c1.8-0.9,4.1-0.2,5,1.6c0.9,1.8,0.2,4.1-1.6,5c-5.3,2.7-13.8,8.8-21.3,14.7c-2.8,15.6-5.7,31.4-7.1,35.9
			c-2.1,7-5.7,11.5-10.2,12.7C392.2,225.8,391.4,225.9,390.4,225.9z M401.4,184.2c-1.2,1.1-2.3,2-3.2,2.9
			c-5.4,5.1-12.2,18.4-12.2,26.2c0,1.7,0.3,2.9,1,3.5c1.1,1,2.7,2.1,4,1.7c1.5-0.4,3.6-2.6,5.1-7.7
			C397.1,207.4,399.2,196.8,401.4,184.2z"/>
	</g>
	<g>
		<path class="st0" d="M475.5,169.8c-6.3,0-9.5-2.5-9.9-2.8l4.7-5.8l-0.1-0.1c0.1,0.1,1.8,1.3,5.6,1.2c5.2-0.1,9-2.3,11.3-6.7
			c1.2-2.3,1.2-4.9,0-7.1c-1.4-2.6-4.1-4.2-7.4-4.5c-15.1-1.3-24.5,8.1-24.6,8.2c-1.4,1.5-3.8,1.5-5.2,0.1c-1.5-1.4-1.5-3.8-0.1-5.2
			c0.5-0.5,11.9-12,30.5-10.4c5.8,0.5,10.7,3.5,13.3,8.3c2.4,4.4,2.4,9.7,0,14.2c-3.7,6.8-9.8,10.5-17.8,10.6
			C475.7,169.8,475.6,169.8,475.5,169.8z"/>
	</g>
	<g>
		<path class="st0" d="M462.9,200.2c-0.1,0-0.3,0-0.4,0c-2-0.2-3.5-2.1-3.3-4.1c0.2-2.1,5.9-52.5,11.3-65.4c0.8-1.9,3-2.8,4.8-2
			c1.9,0.8,2.8,3,2,4.8c-4,9.6-8.8,45.7-10.8,63.4C466.4,198.8,464.8,200.2,462.9,200.2z"/>
	</g>
	<g>
		<path class="st0" d="M561.7,177.8c-0.2,0-0.4,0-0.6,0c-2-0.3-3.4-2.2-3.1-4.2c0-0.2,2.6-16.9,6.3-31.6
			c0.1-0.4,10.7-41.6,24.6-39.3c3.9,0.6,6.7,2.7,8,5.8c1.7,4.1,0.3,9.7-3.7,15.2c-5.1,7-16.1,10.8-19.3,11.8
			c-0.9,2.7-1.7,5.4-2.4,8.3c-3.6,14.3-6.1,30.8-6.1,30.9C565.1,176.5,563.5,177.8,561.7,177.8z M587.7,110
			c-2,0.2-6.3,6.8-10.3,16.2c3.7-1.7,7.8-4,9.9-6.9c2.7-3.7,3.4-6.7,2.8-8C589.8,110.7,589,110.2,587.7,110z"/>
	</g>
	<g>
		<path class="st0" d="M598.3,174.8c-0.1,0-0.2,0-0.3,0c-3.2-0.1-6-1.5-7.9-4.1c-1.2-1.6-2.1-3.3-3-4.9c-1.4-2.6-2.5-4.5-3.9-5.6
			c-9.6,4.5-19.2,2.1-19.8,2c-1.3-0.3-2.3-1.4-2.7-2.7c-0.3-1.3,0.1-2.7,1.1-3.6c0.4-0.4,0.8-0.7,1.2-1c-1-1-1.4-2.6-0.9-4
			c5.7-14.4,15-20.8,26.2-18.1l0.1,0c2.5,0.6,6.6,3.1,7.9,7.6c0.9,3.1,0.6,8.1-5.6,14.4c-0.4,0.4-0.9,0.8-1.3,1.2
			c1.7,1.9,3,4.2,4.1,6.2c0.8,1.5,1.6,2.9,2.4,4.1c0.5,0.7,1.1,1,2.1,1c2,0.1,5.3-1.4,8-4.9c1.8-2.2,3.2-6.1,4.3-10.1
			c-3.6-0.5-6.8-2.5-8.8-5.8c-2.4-3.8-2.6-8.5-0.5-11.6c2.3-3.5,6.7-5.6,10.8-5.2c3.3,0.3,5.8,2.3,7,5.3c0.7,1.7,0.9,4.2,0.7,7.1
			c4.5-2.9,9.5-7.5,12.5-10.6c1.2-1.3,3.2-1.5,4.7-0.6c1.5,1,2.1,2.9,1.4,4.6c-3,6.7-7,19.4-5.4,24.7c0.7,2.3,2,3,2.8,3.3
			c2.7,1,7.1-0.2,11.4-3c1.7-1.1,4-0.7,5.1,1c1.1,1.7,0.7,4-1,5.1c-6.3,4.1-13,5.6-17.9,3.8c-2.5-0.9-5.8-3-7.4-8.1
			c-1.4-4.4-0.5-10.6,0.9-16.2c-2.7,2-5.5,3.8-8.3,5c-1.4,6.3-3.8,12.6-6.4,15.9C608.2,171.8,603,174.8,598.3,174.8z M583.7,139.6
			c-7.8,0-11.9,8-13.8,12.4c4.3-1,9.1-0.9,12.9,0c1-0.7,1.9-1.5,2.9-2.4c2.8-2.8,4.2-5.4,3.7-7.1c-0.4-1.5-2.1-2.4-2.5-2.5l-0.1,0
			C585.7,139.7,584.6,139.6,583.7,139.6z M611,137.1c-1.1,0-2.7,0.7-3.6,2c-0.4,0.5-0.3,2.1,0.6,3.6c0.6,0.9,1.8,2.3,4,2.4
			c0.5-3.4,0.5-6.2,0.1-7.3c-0.2-0.4-0.4-0.6-0.9-0.7C611.1,137.1,611,137.1,611,137.1z"/>
	</g>
	<g>
		<path class="st0" d="M649.2,177.8c-0.2,0-0.4,0-0.6,0c-2-0.3-3.4-2.2-3.1-4.2c0-0.2,2.6-16.9,6.3-31.6c0-0.1,1-3.9,2.7-9.1
			c0.1-0.5,0.2-0.9,0.5-1.4c4.2-12.2,12.1-30.4,21.4-28.8c3.9,0.6,6.7,2.7,8,5.8c1.7,4.1,0.3,9.7-3.7,15.2
			c-4.7,6.4-15.2,10.9-19.5,12.5c-0.8,2.4-1.5,4.9-2.1,7.5c-3.6,14.3-6.1,30.8-6.1,30.9C652.5,176.5,651,177.8,649.2,177.8z
			 M675.1,110c-2,0.2-6.4,6.9-10.5,16.6c3.9-1.9,8-4.5,10-7.3c2.7-3.7,3.4-6.7,2.8-8C677.2,110.7,676.4,110.2,675.1,110z"/>
	</g>
	<g>
		<path class="st0" d="M685.7,174.8c-0.1,0-0.2,0-0.3,0c-3.2-0.1-6-1.5-7.9-4.1c-1.2-1.6-2.1-3.3-3-4.9c-1.4-2.6-2.5-4.5-3.9-5.6
			c-9.6,4.5-19.2,2.1-19.8,2c-1.3-0.3-2.3-1.4-2.7-2.7c-0.3-1.3,0.1-2.7,1.1-3.6c0.4-0.4,0.8-0.7,1.2-1c-1-1-1.4-2.6-0.9-4
			c5.7-14.4,15-20.8,26.2-18.1l0.1,0c2.5,0.6,6.6,3.1,7.9,7.6c0.9,3.1,0.6,8.1-5.6,14.4c-0.4,0.4-0.9,0.8-1.3,1.2
			c1.7,1.9,3,4.2,4.1,6.2c0.8,1.5,1.6,2.9,2.4,4.1c0.5,0.7,1.1,1,2.1,1c2,0.1,5.3-1.4,8-4.9c1.3-1.6,3.6-1.8,5.2-0.6
			c1.6,1.3,1.8,3.6,0.6,5.2C695.6,171.8,690.4,174.8,685.7,174.8z M671.1,139.6c-5.6,0-10.2,4.2-13.8,12.4c4.3-1,9.1-0.8,12.9,0
			c1-0.7,1.9-1.5,2.9-2.4c2.8-2.8,4.2-5.4,3.7-7.1c-0.4-1.5-2.1-2.4-2.5-2.5l-0.1,0C673.1,139.7,672.1,139.6,671.1,139.6z"/>
	</g>
</g>
<g>
	<path d="M90.7,120.7c0-15.6,12.7-28.4,28.4-28.4h15.7c15.6,0,28.4,12.7,28.4,28.4v36.2c8.6-0.2,17.1-0.4,25.7-0.7v-35.4
		c0-29.8-24.3-54.1-54.1-54.1h-15.7C89.2,66.6,65,90.9,65,120.7v35.9c8.6,0.1,17.2,0.2,25.7,0.3V120.7z"/>
	<path class="st1" d="M79.2,178.7H77c-9,0-16.3-7.3-16.3-16.3v-14.1c0-9,7.3-16.3,16.3-16.3h2.3"/>
	<path class="st1" d="M174.8,178.7h2.3c9,0,16.3-7.3,16.3-16.3v-14.1c0-9-7.3-16.3-16.3-16.3h-2.3"/>
	<path d="M126.9,218c-27.9,0-50.6-22.7-50.6-50.6v-38.8c0-27.9,22.7-50.6,50.6-50.6s50.6,22.7,50.6,50.6v38.8
		C177.6,195.3,154.8,218,126.9,218 M126.9,81c-26.2,0-47.5,21.3-47.5,47.5v38.8c0,26.2,21.3,47.5,47.5,47.5s47.5-21.3,47.5-47.5
		v-38.8C174.5,102.3,153.1,81,126.9,81"/>
	<path class="st1" d="M126.9,81c-26.2,0-47.5,21.3-47.5,47.5v38.8c0,26.2,21.3,47.5,47.5,47.5s47.5-21.3,47.5-47.5v-38.8
		C174.5,102.3,153.1,81,126.9,81"/>
	<path class="st2" d="M194.1,150.5c-0.1-1.2-0.1-2.4-0.1-3.6c-0.1,0-0.1,0-0.2,0c-8.3,0-8.3,10.3-16.5,10.3
		c-8.3,0-8.3-10.3-16.5-10.3c-8.3,0-8.3,10.3-16.5,10.3c-8.3,0-8.3-10.3-16.5-10.3c-8.3,0-8.3,10.3-16.5,10.3
		c-8.3,0-8.3-10.3-16.5-10.3s-8.3,10.3-16.5,10.3c-8.3,0-8.3-10.3-16.5-10.3c-0.4,0-0.7,0-1,0.1c0.2,2.9,0.3,5.9,0.1,8.8
		c-0.3,3.9,0,7.8,1.2,11.6c0.9,3.1,2.2,5.3,4.3,7.1c1.3,1.2,2.9,2.3,4.5,3.1c0.6,0.3,1.4,0.6,2.1,0.8c-0.5-0.1,1.9,0,0.8,0.1
		c4.3-0.4,6.8,3,6.4,6.4c3.4,5.6,6.7,11.3,11.2,16.1c4.4,4.7,9.8,8.4,15.6,11.2c2.7,1.2,5.5,2.4,8.3,3.4c3.3,0.8,6.6,1.3,10.2,1.3
		c5.1-0.1,10.2-1.1,15.2-2.2c2.7-0.6,5.4-1.9,8.1-2.6c4.3-2.8,8.4-6.2,12.5-9.2c0.4-0.5,0.9-1,1.3-1.5c4.4-5.3,10.8-10.8,11.4-18
		c0.2-2.5,2.4-4.8,4.9-5.1c1.7-0.2,3.5-0.4,5.2-0.7c2.2-1,4.4-2,5.8-3.3c0.8-0.7,2-2.5,2.7-3.9c0.8-1.8,1.4-3.8,1.7-5.7
		C194.8,159.7,194.4,155.4,194.1,150.5"/>
	<path d="M112.5,160.1c3.3,4.4,8.5,7.3,14.4,7.3c5.9,0,11.1-2.8,14.4-7.3c-4.1,2.1-9,3.3-14.4,3.3
		C121.6,163.5,116.6,162.2,112.5,160.1"/>
	<path d="M145.3,149.2c2.9-0.4,5.5-2.1,6.9-4.9c1.5-2.7,1.4-5.9,0.2-8.5c0,2.4-0.7,5-2,7.5C149.1,145.9,147.3,147.9,145.3,149.2"/>
	<path d="M107.9,149.2c-2.9-0.4-5.5-2.1-6.9-4.9c-1.5-2.7-1.4-5.9-0.2-8.5c0,2.4,0.7,5,2,7.5C104.1,145.9,105.9,147.9,107.9,149.2"
		/>
	<path d="M92.3,174.5c8.8-2.6,23,3.8,31.5-6.5c0.6-0.8,1.3-1.4,1.9-1.9c-0.8-0.2-1.6-0.4-2.5-0.5
		C111.6,163.4,100.3,167.1,92.3,174.5"/>
	<path d="M150,190.5c-6.2-6.8-21.7-8.6-23.7-21.8c-0.1-1-0.4-1.9-0.6-2.6c0.8,0.2,1.6,0.5,2.4,0.8
		C139.2,171.2,146.9,180.1,150,190.5"/>
	<path d="M133.3,189.5c-1.4-5-5-9.2-10.1-11c-5.1-1.8-10.5-0.7-14.7,2.3c4.2-0.7,8.9-0.3,13.5,1.3
		C126.6,183.7,130.4,186.4,133.3,189.5"/>
	<path d="M116,135c0,4.9-2.1,8.8-4.8,8.8c-2.6,0-4.8-4-4.8-8.8c0-4.9,2.1-8.8,4.8-8.8C113.9,126.1,116,130.1,116,135"/>
	<path d="M147.3,135c0,4.9-2.1,8.8-4.8,8.8c-2.6,0-4.8-4-4.8-8.8c0-4.9,2.1-8.8,4.8-8.8C145.2,126.1,147.3,130.1,147.3,135"/>
	<path d="M104.7,118.1c0,0,10.6,1.7,14.1-3.9c3.5-5.6-0.4-8.7-4.3-6.5C112.4,108.8,107.7,117.2,104.7,118.1"/>
	<path d="M154.1,118.8c0,0-7.6,7.6-13.7,5.1c-6.1-2.5-4.7-7.3-0.3-7.8C142.4,115.8,151.2,119.9,154.1,118.8"/>
	<path d="M126.9,218c-27.9,0-50.6-22.7-50.6-50.6v-38.8c0-27.9,22.7-50.6,50.6-50.6s50.6,22.7,50.6,50.6v38.8
		C177.6,195.3,154.8,218,126.9,218 M126.9,81c-26.2,0-47.5,21.3-47.5,47.5v38.8c0,26.2,21.3,47.5,47.5,47.5s47.5-21.3,47.5-47.5
		v-38.8C174.5,102.3,153.1,81,126.9,81"/>
	<path d="M69.4,163.8c0-0.3-2.4-3.9-2.1-12.7c0.2-5.4,3.9-10.2,9.2-11.3l0.6,3C66.8,144.3,69.4,163.8,69.4,163.8"/>
	<path d="M184.6,163.8c0-0.3,2.4-3.9,2.1-12.7c-0.2-5.4-3.9-10.2-9.2-11.3l-0.6,3C187.2,144.3,184.6,163.8,184.6,163.8"/>
	<path d="M79.2,180.3H77c-9.8,0-17.9-8-17.9-17.9v-14.1c0-9.8,8-17.9,17.9-17.9h2.3v3.1H77c-8.1,0-14.8,6.6-14.8,14.8v14.1
		c0,8.1,6.6,14.8,14.8,14.8h2.3V180.3z"/>
	<path d="M177.1,180.3h-2.3v-3.1h2.3c8.1,0,14.8-6.6,14.8-14.8v-14.1c0-8.1-6.6-14.8-14.8-14.8h-2.3v-3.1h2.3
		c9.8,0,17.9,8,17.9,17.9v14.1C194.9,172.2,186.9,180.3,177.1,180.3"/>
	<path d="M176.1,149.1h3.4c1.9,0,3.4-1.5,3.4-3.4v-24.5h-6.8V149.1z"/>
	<path d="M77.9,149.1h-3.4c-1.9,0-3.4-1.5-3.4-3.4v-24.5h6.8V149.1z"/>
	<path d="M158,97.8c0,0-38.8,1.1-48-31.8l30.1-0.7C140.1,65.2,130.4,82,158,97.8"/>
	<path d="M102.2,97.1c0,0,18.7,1.1,23.1-31.8l-14.5-0.7C110.9,64.5,115.5,81.3,102.2,97.1"/>
	<path d="M100.1,107.5c0,0,15.2-10.9-2.1-39.3l-11.7,8.6C86.3,76.8,100.5,86.9,100.1,107.5"/>
	<path d="M72.3,74c0,0-5.7,12.4,13.1,23.4l4.4-9.6C89.8,87.8,78.3,86.8,72.3,74"/>
	<path d="M67.3,84.3c0,0,1.6,13.5,17.2,14.3l-1.3-10.5C83.2,88.1,76,92.7,67.3,84.3"/>
	<path d="M159,69.3c0,7.6-13,13.8-29.1,13.8c-16.1,0-29.1-6.2-29.1-13.8s13-13.8,29.1-13.8C146,55.5,159,61.7,159,69.3"/>
	<path d="M172.7,76.8c0,4.8-4.1,8.7-9.2,8.7s-9.2-3.9-9.2-8.7s4.1-8.7,9.2-8.7S172.7,72,172.7,76.8"/>
	<path d="M105.8,76.8c0,4.8-4.1,8.7-9.2,8.7s-9.2-3.9-9.2-8.7s4.1-8.7,9.2-8.7S105.8,72,105.8,76.8"/>
	<path d="M94.2,83.5c0,4.8-4.1,8.7-9.2,8.7c-5.1,0-9.2-3.9-9.2-8.7s4.1-8.7,9.2-8.7C90.1,74.9,94.2,78.8,94.2,83.5"/>
	<path d="M183.1,86.6c0,4.8-4.1,8.7-9.2,8.7s-9.2-3.9-9.2-8.7s4.1-8.7,9.2-8.7S183.1,81.8,183.1,86.6"/>
	<path d="M122.7,70.9c0,5.6-4.9,10.2-10.9,10.2c-6,0-10.9-4.6-10.9-10.2c0-5.6,4.9-10.2,10.9-10.2C117.8,60.6,122.7,65.2,122.7,70.9
		"/>
	<path d="M140.5,68.7c0,5.6-4.9,10.2-10.9,10.2c-6,0-10.9-4.6-10.9-10.2c0-5.6,4.9-10.2,10.9-10.2C135.7,58.5,140.5,63,140.5,68.7"
		/>
	<path d="M152.6,108c0,0,4.7-16.8-2.4-26.4l14,4.7C164.1,86.3,168.2,103.9,152.6,108"/>
	<path d="M162.1,108c0,0,4.7-16.8-2.4-26.4l14,4.7C173.6,86.3,177.7,103.9,162.1,108"/>
	<path d="M94.3,189.6c0,0.7-0.6,1.3-1.3,1.3c-0.7,0-1.3-0.6-1.3-1.3c0-0.7,0.6-1.3,1.3-1.3C93.7,188.2,94.3,188.8,94.3,189.6"/>
	<path d="M99.4,199.8c0,0.7-0.6,1.3-1.3,1.3c-0.7,0-1.3-0.6-1.3-1.3c0-0.7,0.6-1.3,1.3-1.3C98.8,198.4,99.4,199,99.4,199.8"/>
	<path d="M112,203.5c0,0.7-0.6,1.3-1.3,1.3c-0.7,0-1.3-0.6-1.3-1.3c0-0.7,0.6-1.3,1.3-1.3C111.4,202.2,112,202.8,112,203.5"/>
	<path d="M121.9,196.5c0,0.7-0.6,1.3-1.3,1.3c-0.7,0-1.3-0.6-1.3-1.3c0-0.7,0.6-1.3,1.3-1.3C121.3,195.2,121.9,195.8,121.9,196.5"/>
	<path d="M129.1,204.6c0,0.7-0.6,1.3-1.3,1.3c-0.7,0-1.3-0.6-1.3-1.3c0-0.7,0.6-1.3,1.3-1.3C128.5,203.2,129.1,203.8,129.1,204.6"/>
	<path d="M136.6,196c0,0.7-0.6,1.3-1.3,1.3c-0.7,0-1.3-0.6-1.3-1.3c0-0.7,0.6-1.3,1.3-1.3C136,194.7,136.6,195.3,136.6,196"/>
	<path d="M145.7,203.5c0,0.7-0.6,1.3-1.3,1.3c-0.7,0-1.3-0.6-1.3-1.3c0-0.7,0.6-1.3,1.3-1.3C145.1,202.2,145.7,202.8,145.7,203.5"/>
	<path d="M154.2,194.7c0,0.7-0.6,1.3-1.3,1.3c-0.7,0-1.3-0.6-1.3-1.3c0-0.7,0.6-1.3,1.3-1.3C153.6,193.3,154.2,193.9,154.2,194.7"/>
	<path d="M167.6,186.6c0,0.7-0.6,1.3-1.3,1.3c-0.7,0-1.3-0.6-1.3-1.3c0-0.7,0.6-1.3,1.3-1.3C167,185.3,167.6,185.9,167.6,186.6"/>
	<path d="M86.8,179.7c0,0.7-0.6,1.3-1.3,1.3c-0.7,0-1.3-0.6-1.3-1.3c0-0.7,0.6-1.3,1.3-1.3C86.2,178.3,86.8,178.9,86.8,179.7"/>
	<path d="M170.3,172.7c0,0.7-0.6,1.3-1.3,1.3c-0.7,0-1.3-0.6-1.3-1.3c0-0.7,0.6-1.3,1.3-1.3C169.7,171.4,170.3,172,170.3,172.7"/>
	<path d="M157.4,178.6c0,0.7-0.6,1.3-1.3,1.3c-0.7,0-1.3-0.6-1.3-1.3s0.6-1.3,1.3-1.3C156.9,177.3,157.4,177.9,157.4,178.6"/>
	<path d="M99.6,180.5c0,0.7-0.6,1.3-1.3,1.3c-0.7,0-1.3-0.6-1.3-1.3c0-0.7,0.6-1.3,1.3-1.3C99,179.1,99.6,179.7,99.6,180.5"/>
	<path d="M86,167.9c0,0.7-0.6,1.3-1.3,1.3c-0.7,0-1.3-0.6-1.3-1.3c0-0.7,0.6-1.3,1.3-1.3C85.4,166.6,86,167.2,86,167.9"/>
	<path d="M109,193.3c0,0.7-0.6,1.3-1.3,1.3c-0.7,0-1.3-0.6-1.3-1.3c0-0.7,0.6-1.3,1.3-1.3C108.4,192,109,192.6,109,193.3"/>
	<path class="st2" d="M194.8,50.5c-3.1,2.9-8.4,16.1-8.4,16.1s13.4-4.7,16.5-7.6c3.1-2.9,3.8-7.2,1.5-9.6
		C202.2,47.1,197.9,47.6,194.8,50.5"/>
	<path class="st2" d="M219.9,63.7c-4.1,1.1-15,10.3-15,10.3s14,2.2,18.1,1.1c4.1-1.1,6.7-4.6,5.9-7.8C228,64.2,224,62.6,219.9,63.7"
		/>
	<path class="st2" d="M218.6,89c-4.1-1.1-18.1,1.2-18.1,1.2s10.9,9.1,15.1,10.2c4.1,1.1,8.1-0.5,9-3.7
		C225.4,93.5,222.7,90.1,218.6,89"/>
</g>
</svg>
